<?xml version="1.0" encoding="utf-8"?>
<!-- Generator: Adobe Illustrator 23.0.1, SVG Export Plug-In . SVG Version: 6.00 Build 0)  -->
<svg version="1.1" id="Layer_1" xmlns="http://www.w3.org/2000/svg" xmlns:xlink="http://www.w3.org/1999/xlink" x="0px" y="0px"
	 viewBox="0 0 50 50" style="enable-background:new 0 0 50 50;" xml:space="preserve">
<style type="text/css">
	.st0{fill:#2DB5FF;}
</style>
<path class="st0" d="M25,0C11.192894,0,0,11.1928844,0,25.0000229C0,38.8071175,11.192894,50,25,50s25-11.1928825,25-24.9999771
	C50,11.1928844,38.807106,0,25,0z M24.8991451,45.5583229c-0.4294682,0-0.8546963-0.0174866-1.2776299-0.0434532
	C24.0444031,45.5408363,24.469677,45.5583229,24.8991451,45.5583229c0.4200191,0,0.8361092-0.0165176,1.2499008-0.0413742
	C25.7352104,45.5418053,25.3192081,45.5583229,24.8991451,45.5583229z M9.3753147,38.4695358
	c0.8530197,0.9828415,1.7986364,1.8828011,2.8216152,2.6888351C11.1732883,40.3526001,10.228776,39.4522896,9.3753147,38.4695358z
	 M12.2933683,41.2341461c0.6742296,0.5247993,1.3816204,1.008934,2.119215,1.4477654
	C13.6746359,42.2433014,12.9679508,41.7587242,12.2933683,41.2341461z M14.5191336,42.7431564
	c0.3220787,0.1890335,0.6502962,0.3684883,0.9832821,0.540123C15.1692972,43.1117325,14.8413448,42.9320564,14.5191336,42.7431564z
	 M15.708848,43.3889923c0.3682222,0.1846199,0.7412596,0.3610687,1.1217146,0.5237846
	C16.4500198,43.7501945,16.0772038,43.5734329,15.708848,43.3889923z M16.8329029,43.9138374
	c0.3861065,0.1650581,0.7794971,0.3161621,1.177351,0.4578171C17.6123123,44.2301331,17.219141,44.0788078,16.8329029,43.9138374z
	 M18.2592087,44.4559059c0.3128071,0.1068573,0.6291008,0.2059898,0.9484863,0.2979698
	C18.8882217,44.6619835,18.5721035,44.5626755,18.2592087,44.4559059z M19.5178528,44.8419685
	c0.3819561,0.1034126,0.767355,0.1985283,1.1577892,0.2801285C20.28512,45.0405388,19.8998528,44.9453392,19.5178528,44.8419685z
	 M20.7289391,45.1344185c0.4067726,0.0838509,0.8189754,0.1523399,1.2341805,0.2117729
	C21.5479145,45.2868004,21.1357555,45.2182274,20.7289391,45.1344185z M22.3067913,45.3898621
	c0.3132038,0.0394783,0.6285725,0.0718002,0.9460144,0.0969696C22.9353199,45.4616623,22.6200409,45.4292946,22.3067913,45.3898621z
	 M26.5228329,45.4885559c0.2988091-0.0234032,0.5958519-0.0527687,0.8909073-0.0888023
	C27.1186409,45.4357872,26.8216419,45.4651947,26.5228329,45.4885559z M27.7949009,45.3513145
	c0.3468513-0.0489235,0.6909199-0.1061516,1.0319424-0.1721649C28.4857769,45.245163,28.1417522,45.3023911,27.7949009,45.3513145z
	 M28.9999828,45.1481934c0.3964825-0.0802765,0.7881088-0.1738434,1.1758938-0.2765541
	C29.7880039,44.9743919,29.3964653,45.0679169,28.9999828,45.1481934z M30.4876671,44.7831078
	c0.2894478-0.081646,0.5764656-0.1687698,0.8605709-0.2625999C31.0641327,44.6143379,30.7771587,44.7014618,30.4876671,44.7831078z
	 M31.6984444,44.401989c0.3021202-0.1058884,0.6008835-0.2189293,0.8963814-0.3383713
	C32.2992859,44.1830177,32.0006104,44.2961006,31.6984444,44.401989z M32.8183479,43.9754791
	c0.3676491-0.1536179,0.7297325-0.317749,1.0861244-0.4917717C33.5479927,43.6576843,33.185997,43.8218613,32.8183479,43.9754791z
	 M34.127285,43.3695641c0.2824287-0.1421852,0.561367-0.2901993,0.8361969-0.4448814
	C34.688652,43.079319,34.4097557,43.2273331,34.127285,43.3695641z M35.2635727,42.752121
	c0.2665749-0.1560059,0.5291748-0.3181076,0.7879333-0.4855919C35.7926559,42.4340591,35.5301895,42.5960693,35.2635727,42.752121z
	 M36.2777634,42.1214752c0.33144-0.220787,0.6569633-0.4496956,0.9744949-0.6888008
	C36.9346848,41.6717796,36.6092491,41.9006882,36.2777634,42.1214752z M37.3586769,41.349041
	c0.2778778-0.2121315,0.5497055-0.431675,0.8161926-0.6574059C37.9083405,40.917366,37.6366005,41.1369095,37.3586769,41.349041z
	 M38.4139328,40.4845848c0.2325745-0.2032089,0.4604225-0.4115868,0.6836357-0.6249046
	C38.8743134,40.072998,38.646553,40.2813301,38.4139328,40.4845848z M39.29879,39.6678162
	c0.5669289-0.5566826,1.1013565-1.1460838,1.6009903-1.7649422C40.4000587,38.5217743,39.8658066,39.1110916,39.29879,39.6678162z
	 M41.0761452,37.6784706c0.1927414-0.2455559,0.3799248-0.4955711,0.5615387-0.749958
	C41.4560699,37.1829453,41.2688866,37.432869,41.0761452,37.6784706z M41.8068924,36.6905975
	c0.2241402-0.3235359,0.4418335-0.6519318,0.6475143-0.9886246C42.2486801,36.0386658,42.0310326,36.3670158,41.8068924,36.6905975z
	 M42.4548492,35.7013092l-9.8360443-9.8360367l-3.479023,3.4790173l-8.1088982-8.1088467L7.0575275,35.208786
	c0.6623511,1.1550522,1.4338131,2.2394524,2.2996826,3.2398224c-3.122632-3.605484-5.0164261-8.3044186-5.0164261-13.4485855
	c0-11.3540573,9.2042952-20.5583458,20.5583611-20.5583458c11.3540249,0,20.5583172,9.2042875,20.5583172,20.5583458
	C45.4574623,28.9204311,44.3591957,32.5838928,42.4548492,35.7013092z"/>
</svg>
