<?xml version="1.0" encoding="utf-8"?>
<!-- Generator: Adobe Illustrator 26.2.1, SVG Export Plug-In . SVG Version: 6.00 Build 0)  -->
<svg version="1.1" id="a" xmlns="http://www.w3.org/2000/svg" xmlns:xlink="http://www.w3.org/1999/xlink" x="0px" y="0px"
	 viewBox="0 0 167.1 61.5" style="enable-background:new 0 0 167.1 61.5;" xml:space="preserve">
<style type="text/css">
	.st0{fill:#FFFFFF;}
	.st1{fill:#2DB5FF;}
</style>
<g>
	<path class="st0" d="M69.3,5.9c0.9,0,1.6,0.1,2.1,0.3c0.5,0.2,0.9,0.5,1.2,1c0.2,0.5,0.4,1.1,0.4,1.9c0,0.6-0.1,1.1-0.2,1.5
		c-0.1,0.4-0.4,0.7-0.7,0.9c-0.3,0.2-0.7,0.4-1.2,0.4V12c0.2,0,0.4,0.1,0.5,0.3c0.2,0.1,0.4,0.3,0.5,0.5c0.2,0.2,0.3,0.5,0.4,0.8
		l1,3.5h-1.7l-1-3.4c-0.1-0.4-0.3-0.7-0.5-0.9c-0.2-0.2-0.5-0.3-0.9-0.3c-0.7,0-1.2,0-1.7,0c-0.5,0-0.9,0-1.2,0c-0.3,0-0.6,0-0.8,0
		l0-1.3h3.6c0.5,0,0.9-0.1,1.2-0.2s0.5-0.3,0.7-0.6c0.1-0.3,0.2-0.7,0.2-1.2c0-0.5-0.1-0.9-0.2-1.2c-0.1-0.3-0.3-0.5-0.7-0.6
		c-0.3-0.1-0.7-0.2-1.2-0.2c-0.9,0-1.7,0-2.3,0c-0.7,0-1.1,0-1.3,0L65.4,6c0.4,0,0.8-0.1,1.2-0.1c0.4,0,0.8,0,1.2,0
		C68.2,5.9,68.7,5.9,69.3,5.9L69.3,5.9z M67,6v11h-1.6V6L67,6L67,6z"/>
	<path class="st0" d="M77.4,6h1.6c0.6,0,1.1,0,1.6,0c0.5,0,1.1,0,1.5,0.1l-0.1,1.2h-4.4c-0.3,0-0.6,0.1-0.7,0.2
		C77,7.7,76.9,8,76.9,8.3v6.4c0,0.4,0.1,0.6,0.2,0.8s0.4,0.2,0.7,0.2h4.4l0.1,1.2c-0.5,0-1,0-1.5,0.1c-0.5,0-1.1,0-1.6,0
		s-1.1,0-1.6,0c-0.7,0-1.2-0.2-1.6-0.5c-0.4-0.4-0.6-0.8-0.6-1.4V8c0-0.6,0.2-1.1,0.6-1.4C76.3,6.2,76.8,6,77.4,6z M75.6,10.6h6v1.2
		h-6V10.6z"/>
	<path class="st0" d="M92.6,6l-3.3,10.6c0,0.1-0.1,0.2-0.2,0.3c-0.1,0.1-0.2,0.1-0.4,0.1h-1.6c-0.1,0-0.3,0-0.4-0.1
		c-0.1-0.1-0.2-0.2-0.2-0.3L83.3,6h1.7l2.5,8.6c0,0.2,0.1,0.4,0.2,0.6c0,0.2,0.1,0.4,0.1,0.6h0.4c0-0.2,0.1-0.4,0.1-0.6
		c0-0.2,0.1-0.4,0.2-0.6L91,6L92.6,6L92.6,6z"/>
	<path class="st0" d="M98.2,5.8c0.8,0,1.5,0.1,2.1,0.3c0.6,0.2,1,0.5,1.4,0.9c0.3,0.4,0.6,1,0.7,1.8s0.2,1.7,0.2,2.7s-0.1,2-0.2,2.7
		c-0.2,0.7-0.4,1.3-0.7,1.8c-0.3,0.4-0.8,0.8-1.4,0.9c-0.6,0.2-1.3,0.3-2.1,0.3s-1.5-0.1-2.1-0.3c-0.6-0.2-1-0.5-1.4-0.9
		c-0.3-0.4-0.6-1-0.8-1.8c-0.2-0.7-0.2-1.7-0.2-2.7s0.1-2,0.2-2.7c0.2-0.7,0.4-1.3,0.8-1.8c0.3-0.4,0.8-0.8,1.4-0.9
		C96.7,5.9,97.4,5.8,98.2,5.8z M98.2,7.2c-0.7,0-1.2,0.1-1.7,0.4c-0.4,0.3-0.7,0.7-0.9,1.3c-0.2,0.6-0.2,1.5-0.2,2.6s0.1,2,0.2,2.6
		c0.2,0.6,0.5,1.1,0.9,1.3c0.4,0.3,1,0.4,1.7,0.4s1.2-0.1,1.6-0.4c0.4-0.3,0.7-0.7,0.9-1.3c0.2-0.6,0.3-1.5,0.3-2.6s-0.1-2-0.3-2.6
		c-0.2-0.6-0.5-1.1-0.9-1.3C99.4,7.3,98.9,7.2,98.2,7.2z"/>
	<path class="st0" d="M106.4,6v8.7c0,0.3,0.1,0.6,0.3,0.8c0.2,0.2,0.4,0.2,0.8,0.2h4l0.1,1.2c-0.7,0-1.4,0.1-2.2,0.1
		c-0.7,0-1.5,0-2.2,0c-0.8,0-1.4-0.2-1.7-0.6c-0.4-0.4-0.5-0.9-0.5-1.5V6H106.4z"/>
	<path class="st0" d="M121,6v6.8c0,1.1-0.1,1.9-0.4,2.6s-0.7,1.1-1.3,1.4c-0.6,0.3-1.4,0.4-2.4,0.4c-1,0-1.8-0.1-2.5-0.4
		c-0.6-0.3-1-0.8-1.3-1.4c-0.3-0.7-0.4-1.5-0.4-2.6V6h1.6v6.8c0,0.8,0.1,1.4,0.2,1.8c0.1,0.5,0.4,0.8,0.8,1c0.4,0.2,0.9,0.3,1.5,0.3
		s1.1-0.1,1.5-0.3c0.4-0.2,0.6-0.5,0.8-1c0.2-0.5,0.2-1.1,0.2-1.8V6H121L121,6z"/>
	<path class="st0" d="M131.3,6v1.4h-8.6V6C122.7,6,131.3,6,131.3,6z M127.8,6v11.1h-1.6V6H127.8z"/>
	<path class="st0" d="M134.6,6v11.1H133V6H134.6z"/>
	<path class="st0" d="M141.3,5.8c0.8,0,1.5,0.1,2.1,0.3c0.6,0.2,1,0.5,1.4,0.9c0.3,0.4,0.6,1,0.7,1.8c0.1,0.7,0.2,1.7,0.2,2.7
		s-0.1,2-0.2,2.7c-0.2,0.7-0.4,1.3-0.7,1.8c-0.3,0.4-0.8,0.8-1.4,0.9c-0.6,0.2-1.3,0.3-2.1,0.3c-0.8,0-1.5-0.1-2.1-0.3
		c-0.6-0.2-1-0.5-1.4-0.9c-0.3-0.4-0.6-1-0.8-1.8c-0.2-0.7-0.2-1.7-0.2-2.7s0.1-2,0.2-2.7c0.2-0.7,0.4-1.3,0.8-1.8
		c0.3-0.4,0.8-0.8,1.4-0.9C139.8,5.9,140.5,5.8,141.3,5.8z M141.3,7.2c-0.7,0-1.2,0.1-1.7,0.4c-0.4,0.3-0.7,0.7-0.9,1.3
		c-0.2,0.6-0.2,1.5-0.2,2.6s0.1,2,0.2,2.6c0.2,0.6,0.5,1.1,0.9,1.3c0.4,0.3,1,0.4,1.7,0.4c0.7,0,1.2-0.1,1.6-0.4
		c0.4-0.3,0.7-0.7,0.9-1.3c0.2-0.6,0.3-1.5,0.3-2.6s-0.1-2-0.3-2.6c-0.2-0.6-0.5-1.1-0.9-1.3C142.6,7.3,142,7.2,141.3,7.2z"/>
	<path class="st0" d="M156.7,6v10.4c0,0.4-0.2,0.6-0.6,0.6h-1.4c-0.2,0-0.3,0-0.4-0.1c-0.1-0.1-0.2-0.2-0.3-0.4l-3.6-7.5
		c-0.1-0.2-0.2-0.5-0.3-0.7c-0.1-0.3-0.2-0.5-0.3-0.8h-0.2c0,0.2,0,0.5,0,0.7c0,0.2,0,0.5,0,0.8v7.9h-1.6V6.6c0-0.4,0.2-0.6,0.6-0.6
		h1.3c0.2,0,0.3,0,0.4,0.1c0.1,0.1,0.2,0.2,0.3,0.4l3.5,7.3c0.1,0.2,0.2,0.5,0.4,0.8c0.1,0.3,0.3,0.6,0.4,0.9h0.3c0-0.3,0-0.6,0-0.9
		c0-0.3,0-0.6,0-0.8V6H156.7L156.7,6z"/>
	<path class="st0" d="M73,25.2v1.4h-8.6v-1.4C64.4,25.2,73,25.2,73,25.2z M69.5,25.2v11.1h-1.6V25.2H69.5z"/>
	<path class="st0" d="M76.8,25.2h1.6c0.6,0,1.1,0,1.6,0c0.5,0,1.1,0,1.5,0.1l-0.1,1.2h-4.4c-0.3,0-0.6,0.1-0.7,0.2s-0.2,0.4-0.2,0.8
		V34c0,0.4,0.1,0.6,0.2,0.8c0.1,0.2,0.4,0.2,0.7,0.2h4.4l0.1,1.2c-0.5,0-1,0-1.5,0.1c-0.5,0-1.1,0-1.6,0c-0.6,0-1.1,0-1.6,0
		c-0.7,0-1.2-0.2-1.6-0.5c-0.4-0.4-0.6-0.8-0.6-1.4v-7.1c0-0.6,0.2-1.1,0.6-1.4C75.6,25.4,76.2,25.2,76.8,25.2L76.8,25.2z
		 M74.9,29.9h6v1.2h-6V29.9z"/>
	<path class="st0" d="M87.7,25c0.5,0,0.9,0,1.2,0c0.3,0,0.7,0.1,0.9,0.1c0.3,0,0.6,0.1,0.9,0.2l-0.2,1.2c-0.3,0-0.6-0.1-0.9-0.1
		c-0.3,0-0.6,0-0.9,0c-0.3,0-0.7,0-1.1,0c-0.7,0-1.2,0.1-1.6,0.4c-0.4,0.3-0.7,0.7-0.8,1.3C85,28.8,85,29.7,85,30.8s0.1,1.9,0.2,2.6
		c0.2,0.6,0.4,1.1,0.8,1.3c0.4,0.3,0.9,0.4,1.6,0.4s1.3,0,1.7,0s0.9-0.1,1.4-0.1l0.2,1.2c-0.5,0.1-0.9,0.2-1.5,0.3
		c-0.5,0.1-1.1,0.1-1.8,0.1c-1.1,0-1.9-0.2-2.6-0.6c-0.7-0.4-1.1-1-1.4-1.8c-0.3-0.8-0.4-2-0.4-3.4s0.1-2.5,0.4-3.4
		c0.3-0.8,0.8-1.4,1.4-1.8C85.7,25.2,86.6,25.1,87.7,25L87.7,25z"/>
	<path class="st0" d="M94.4,25.2v11.1h-1.6V25.2H94.4z M99.5,29.7V31h-5.2v-1.3H99.5z M100.9,25.2v11.1h-1.6V25.2H100.9z"/>
	<path class="st0" d="M112.3,25.2v10.4c0,0.4-0.2,0.6-0.6,0.6h-1.4c-0.2,0-0.3,0-0.4-0.1c-0.1-0.1-0.2-0.2-0.3-0.4l-3.6-7.5
		c-0.1-0.2-0.2-0.5-0.3-0.7c-0.1-0.3-0.2-0.5-0.3-0.8h-0.2c0,0.2,0,0.5,0,0.7c0,0.2,0,0.5,0,0.8v7.9h-1.6V25.9
		c0-0.4,0.2-0.6,0.6-0.6h1.3c0.2,0,0.3,0,0.4,0.1c0.1,0.1,0.2,0.2,0.3,0.4l3.5,7.3c0.1,0.2,0.2,0.5,0.4,0.8c0.1,0.3,0.3,0.6,0.4,0.9
		h0.3c0-0.3,0-0.6,0-0.9c0-0.3,0-0.6,0-0.8v-7.7L112.3,25.2L112.3,25.2z"/>
	<path class="st0" d="M119,25c0.8,0,1.5,0.1,2.1,0.3c0.6,0.2,1,0.5,1.4,0.9c0.3,0.4,0.6,1,0.7,1.8c0.1,0.7,0.2,1.7,0.2,2.7
		c0,1.1-0.1,2-0.2,2.7c-0.2,0.7-0.4,1.3-0.7,1.8c-0.3,0.4-0.8,0.8-1.4,0.9c-0.6,0.2-1.3,0.3-2.1,0.3c-0.8,0-1.5-0.1-2.1-0.3
		c-0.6-0.2-1-0.5-1.4-0.9c-0.3-0.4-0.6-1-0.8-1.8s-0.2-1.7-0.2-2.7c0-1.1,0.1-2,0.2-2.7c0.2-0.7,0.4-1.3,0.8-1.8
		c0.3-0.4,0.8-0.8,1.4-0.9C117.5,25.1,118.2,25,119,25z M119,26.4c-0.7,0-1.2,0.1-1.7,0.4c-0.4,0.3-0.7,0.7-0.9,1.3
		c-0.2,0.6-0.2,1.5-0.2,2.6s0.1,2,0.2,2.6c0.2,0.6,0.5,1.1,0.9,1.3c0.4,0.3,1,0.4,1.7,0.4s1.2-0.1,1.6-0.4c0.4-0.3,0.7-0.7,0.9-1.3
		c0.2-0.6,0.3-1.5,0.3-2.6s-0.1-2-0.3-2.6c-0.2-0.6-0.5-1.1-0.9-1.3C120.2,26.5,119.7,26.4,119,26.4z"/>
	<path class="st0" d="M127.3,25.2v8.7c0,0.3,0.1,0.6,0.3,0.8c0.2,0.2,0.4,0.2,0.8,0.2h4l0.1,1.2c-0.7,0-1.4,0.1-2.2,0.1
		c-0.7,0-1.5,0-2.2,0c-0.8,0-1.4-0.2-1.7-0.6c-0.4-0.4-0.5-0.9-0.5-1.5v-9L127.3,25.2L127.3,25.2z"/>
	<path class="st0" d="M137.8,25c0.8,0,1.5,0.1,2.1,0.3c0.6,0.2,1,0.5,1.4,0.9s0.6,1,0.7,1.8c0.1,0.7,0.2,1.7,0.2,2.7
		c0,1.1-0.1,2-0.2,2.7c-0.2,0.7-0.4,1.3-0.7,1.8s-0.8,0.8-1.4,0.9s-1.3,0.3-2.1,0.3c-0.8,0-1.5-0.1-2.1-0.3c-0.6-0.2-1-0.5-1.4-0.9
		s-0.6-1-0.8-1.8c-0.2-0.8-0.2-1.7-0.2-2.7c0-1.1,0.1-2,0.2-2.7s0.4-1.3,0.8-1.8c0.3-0.4,0.8-0.8,1.4-0.9
		C136.3,25.1,137,25,137.8,25z M137.8,26.4c-0.7,0-1.2,0.1-1.7,0.4c-0.4,0.3-0.7,0.7-0.9,1.3c-0.2,0.6-0.2,1.5-0.2,2.6
		s0.1,2,0.2,2.6c0.2,0.6,0.5,1.1,0.9,1.3c0.4,0.3,1,0.4,1.7,0.4c0.7,0,1.2-0.1,1.6-0.4c0.4-0.3,0.7-0.7,0.9-1.3
		c0.2-0.6,0.3-1.5,0.3-2.6s-0.1-2-0.3-2.6c-0.2-0.6-0.5-1.1-0.9-1.3C139,26.5,138.5,26.4,137.8,26.4z"/>
	<path class="st0" d="M148.8,25c0.4,0,0.8,0,1.1,0c0.4,0,0.7,0.1,1,0.1c0.3,0,0.7,0.1,1,0.2l-0.2,1.2c-0.3,0-0.7-0.1-1-0.1
		c-0.3,0-0.7,0-1,0c-0.3,0-0.6,0-0.9,0c-0.6,0-1,0-1.4,0.2c-0.4,0.1-0.7,0.3-0.9,0.6c-0.2,0.3-0.4,0.8-0.5,1.3
		c-0.1,0.6-0.2,1.3-0.2,2.3c0,1.1,0.1,1.9,0.2,2.5c0.1,0.6,0.4,1.1,0.7,1.3c0.3,0.3,0.8,0.4,1.4,0.4c0.4,0,0.8,0,1.1-0.2
		s0.6-0.2,0.9-0.4c0.3-0.2,0.6-0.4,0.8-0.5l0.2,0.9c-0.2,0.2-0.4,0.4-0.8,0.7c-0.3,0.2-0.7,0.5-1.2,0.6c-0.4,0.2-1,0.3-1.5,0.3
		c-0.8,0-1.5-0.2-2-0.6c-0.5-0.4-0.9-1-1.1-1.9c-0.2-0.9-0.4-1.9-0.4-3.3c0-1.5,0.1-2.6,0.4-3.4c0.3-0.8,0.8-1.4,1.5-1.8
		C146.7,25.2,147.7,25,148.8,25L148.8,25z M152.3,29.9v6.4h-1.2l-0.3-1.6l-0.1-0.4v-4.4H152.3L152.3,29.9z"/>
	<path class="st0" d="M162.3,25.2l-3.7,7.4h-1.5l-3.7-7.4h1.7l2.2,4.5c0.1,0.2,0.2,0.4,0.3,0.6c0.1,0.2,0.1,0.4,0.2,0.7h0.1
		c0.1-0.2,0.1-0.4,0.2-0.7c0.1-0.2,0.2-0.4,0.2-0.6l2.2-4.6L162.3,25.2L162.3,25.2z M158.6,31.5v4.8H157v-4.8H158.6z"/>
	<path class="st0" d="M68.6,44.3c0.5,0,1.1,0,1.7,0.1c0.6,0,1.1,0.1,1.7,0.3l-0.1,1.1c-0.5,0-1,0-1.5,0c-0.6,0-1.1,0-1.7,0
		c-0.4,0-0.7,0-1,0c-0.3,0-0.5,0.1-0.7,0.2c-0.2,0.1-0.3,0.2-0.4,0.5c-0.1,0.2-0.1,0.5-0.1,0.9c0,0.6,0.1,1,0.3,1.2
		c0.2,0.2,0.6,0.4,1,0.5l2.2,0.6c0.9,0.2,1.4,0.6,1.8,1.1c0.3,0.5,0.5,1.2,0.5,2c0,0.6-0.1,1.2-0.2,1.6c-0.1,0.4-0.4,0.7-0.7,0.9
		c-0.3,0.2-0.7,0.4-1.2,0.4s-1,0.1-1.7,0.1c-0.4,0-0.8,0-1.4,0c-0.6,0-1.3-0.1-2.1-0.3l0.1-1.2c0.6,0,1.1,0,1.5,0c0.4,0,0.7,0,1,0
		h0.9c0.5,0,1,0,1.3-0.1c0.3-0.1,0.5-0.2,0.7-0.5c0.1-0.2,0.2-0.6,0.2-1c0-0.4,0-0.7-0.1-0.9s-0.2-0.4-0.4-0.5
		c-0.2-0.1-0.5-0.2-0.8-0.3l-2.3-0.6c-0.8-0.2-1.4-0.6-1.7-1.1c-0.3-0.5-0.5-1.2-0.5-2c0-0.6,0.1-1.2,0.2-1.6
		c0.1-0.4,0.4-0.7,0.7-0.9c0.3-0.2,0.7-0.3,1.1-0.4C67.3,44.3,67.9,44.3,68.6,44.3L68.6,44.3z"/>
	<path class="st0" d="M78.5,44.2c0.8,0,1.5,0.1,2.1,0.3c0.6,0.2,1,0.5,1.4,0.9c0.3,0.4,0.6,1,0.7,1.8c0.1,0.7,0.2,1.7,0.2,2.7
		s-0.1,2-0.2,2.7c-0.2,0.7-0.4,1.3-0.7,1.8c-0.3,0.4-0.8,0.8-1.4,0.9c-0.6,0.2-1.3,0.3-2.1,0.3c-0.8,0-1.5-0.1-2.1-0.3
		c-0.6-0.2-1-0.5-1.4-0.9c-0.3-0.4-0.6-1-0.8-1.8C74.1,52,74,51.1,74,50s0.1-2,0.2-2.7c0.2-0.7,0.4-1.3,0.8-1.8
		c0.3-0.4,0.8-0.8,1.4-0.9C77,44.3,77.7,44.2,78.5,44.2z M78.5,45.6c-0.7,0-1.2,0.1-1.7,0.4c-0.4,0.3-0.7,0.7-0.9,1.3
		c-0.2,0.6-0.2,1.5-0.2,2.6s0.1,2,0.2,2.6c0.2,0.6,0.5,1.1,0.9,1.3c0.4,0.3,1,0.4,1.7,0.4c0.7,0,1.2-0.1,1.6-0.4
		c0.4-0.3,0.7-0.7,0.9-1.3c0.2-0.6,0.3-1.5,0.3-2.6s-0.1-2-0.3-2.6c-0.2-0.6-0.5-1.1-0.9-1.3C79.7,45.8,79.2,45.6,78.5,45.6z"/>
	<path class="st0" d="M86.8,44.5v8.7c0,0.3,0.1,0.6,0.3,0.8c0.2,0.2,0.4,0.2,0.8,0.2h4l0.1,1.2c-0.7,0-1.4,0.1-2.2,0.1
		c-0.7,0-1.5,0-2.2,0c-0.8,0-1.4-0.2-1.7-0.6c-0.4-0.4-0.5-0.9-0.5-1.5v-9L86.8,44.5L86.8,44.5z"/>
	<path class="st0" d="M101.3,44.5v6.8c0,1.1-0.1,1.9-0.4,2.6c-0.3,0.7-0.7,1.1-1.3,1.4c-0.6,0.3-1.4,0.4-2.4,0.4
		c-1,0-1.8-0.1-2.5-0.4c-0.6-0.3-1-0.8-1.3-1.4c-0.3-0.7-0.4-1.5-0.4-2.6v-6.8h1.6v6.8c0,0.8,0.1,1.4,0.2,1.8c0.1,0.5,0.4,0.8,0.8,1
		c0.4,0.2,0.9,0.3,1.5,0.3s1.1-0.1,1.5-0.3c0.4-0.2,0.6-0.5,0.8-1c0.2-0.5,0.2-1.1,0.2-1.8v-6.8H101.3L101.3,44.5z"/>
	<path class="st0" d="M111.6,44.5v1.4H103v-1.4H111.6z M108.1,44.5v11.1h-1.6V44.5H108.1z"/>
	<path class="st0" d="M114.9,44.5v11.1h-1.6V44.5H114.9z"/>
	<path class="st0" d="M121.7,44.2c0.8,0,1.5,0.1,2.1,0.3c0.6,0.2,1,0.5,1.4,0.9c0.3,0.4,0.6,1,0.7,1.8c0.1,0.7,0.2,1.7,0.2,2.7
		s-0.1,2-0.2,2.7c-0.2,0.7-0.4,1.3-0.7,1.8c-0.3,0.4-0.8,0.8-1.4,0.9c-0.6,0.2-1.3,0.3-2.1,0.3s-1.5-0.1-2.1-0.3
		c-0.6-0.2-1-0.5-1.4-0.9c-0.3-0.4-0.6-1-0.8-1.8c-0.2-0.8-0.2-1.7-0.2-2.7s0.1-2,0.2-2.7s0.4-1.3,0.8-1.8c0.3-0.4,0.8-0.8,1.4-0.9
		C120.2,44.3,120.8,44.2,121.7,44.2z M121.7,45.6c-0.7,0-1.2,0.1-1.7,0.4c-0.4,0.3-0.7,0.7-0.9,1.3c-0.2,0.6-0.2,1.5-0.2,2.6
		s0.1,2,0.2,2.6c0.2,0.6,0.5,1.1,0.9,1.3c0.4,0.3,1,0.4,1.7,0.4s1.2-0.1,1.6-0.4c0.4-0.3,0.7-0.7,0.9-1.3c0.2-0.6,0.3-1.5,0.3-2.6
		s-0.1-2-0.3-2.6c-0.2-0.6-0.5-1.1-0.9-1.3C122.9,45.8,122.4,45.6,121.7,45.6z"/>
	<path class="st0" d="M137,44.5v10.4c0,0.4-0.2,0.6-0.6,0.6h-1.4c-0.2,0-0.3,0-0.4-0.1c-0.1-0.1-0.2-0.2-0.3-0.4l-3.6-7.5
		c-0.1-0.2-0.2-0.5-0.3-0.7c-0.1-0.3-0.2-0.5-0.3-0.8h-0.2c0,0.2,0,0.5,0,0.7c0,0.2,0,0.5,0,0.8v7.9h-1.6V45.1
		c0-0.4,0.2-0.6,0.6-0.6h1.3c0.2,0,0.3,0,0.4,0.1c0.1,0.1,0.2,0.2,0.3,0.4l3.5,7.3c0.1,0.2,0.2,0.5,0.4,0.8c0.1,0.3,0.3,0.6,0.4,0.9
		h0.3c0-0.3,0-0.6,0-0.9c0-0.3,0-0.6,0-0.8v-7.7L137,44.5L137,44.5z"/>
	<path class="st0" d="M142.9,44.3c0.5,0,1.1,0,1.7,0.1c0.6,0,1.1,0.1,1.7,0.3l-0.1,1.1c-0.5,0-1,0-1.5,0c-0.6,0-1.1,0-1.7,0
		c-0.4,0-0.7,0-1,0c-0.3,0-0.5,0.1-0.7,0.2c-0.2,0.1-0.3,0.2-0.4,0.5c-0.1,0.2-0.1,0.5-0.1,0.9c0,0.6,0.1,1,0.3,1.2
		c0.2,0.2,0.6,0.4,1,0.5l2.2,0.6c0.9,0.2,1.4,0.6,1.8,1.1c0.3,0.5,0.5,1.2,0.5,2c0,0.6-0.1,1.2-0.2,1.6c-0.1,0.4-0.4,0.7-0.7,0.9
		c-0.3,0.2-0.7,0.4-1.2,0.4s-1,0.1-1.7,0.1c-0.4,0-0.8,0-1.4,0c-0.6,0-1.3-0.1-2.1-0.3l0.1-1.2c0.6,0,1.1,0,1.5,0c0.4,0,0.7,0,1,0
		h0.9c0.5,0,1,0,1.3-0.1c0.3-0.1,0.5-0.2,0.7-0.5s0.2-0.6,0.2-1c0-0.4,0-0.7-0.1-0.9c-0.1-0.2-0.2-0.4-0.4-0.5
		c-0.2-0.1-0.5-0.2-0.8-0.3l-2.3-0.6c-0.8-0.2-1.4-0.6-1.7-1.1c-0.3-0.5-0.5-1.2-0.5-2c0-0.6,0.1-1.2,0.2-1.6
		c0.1-0.4,0.4-0.7,0.7-0.9c0.3-0.2,0.7-0.3,1.1-0.4S142.2,44.3,142.9,44.3L142.9,44.3z"/>
</g>
<path class="st1" d="M30.4,4.5C16,4.5,4.3,16.1,4.3,30.6S16,56.7,30.4,56.7S56.5,45,56.5,30.6S44.8,4.5,30.4,4.5z M30.3,52
	c-0.5,0-0.9,0-1.3,0C29.4,52,29.8,52,30.3,52c0.5,0,0.9,0,1.3,0C31.2,52,30.7,52,30.3,52z M14.1,44.6c0.9,1,1.9,2,3,2.8
	C15.9,46.6,15,45.7,14.1,44.6z M17.1,47.5c0.7,0.5,1.4,1.1,2.2,1.5C18.6,48.6,17.8,48.1,17.1,47.5z M19.4,49.1
	c0.3,0.2,0.7,0.4,1,0.6C20.1,49.5,19.8,49.3,19.4,49.1z M20.7,49.8c0.4,0.2,0.8,0.4,1.2,0.5C21.5,50.1,21.1,50,20.7,49.8z
	 M21.9,50.3c0.4,0.2,0.8,0.3,1.2,0.5C22.7,50.6,22.3,50.5,21.9,50.3z M23.3,50.9c0.3,0.1,0.7,0.2,1,0.3C24,51.1,23.7,51,23.3,50.9z
	 M24.7,51.3c0.4,0.1,0.8,0.2,1.2,0.3C25.5,51.5,25.1,51.4,24.7,51.3z M25.9,51.6c0.4,0.1,0.9,0.2,1.3,0.2
	C26.8,51.8,26.4,51.7,25.9,51.6z M27.6,51.9c0.3,0,0.7,0.1,1,0.1C28.2,51.9,27.9,51.9,27.6,51.9z M32,52c0.3,0,0.6-0.1,0.9-0.1
	C32.6,51.9,32.3,51.9,32,52z M33.3,51.8c0.4,0,0.7-0.1,1.1-0.2C34,51.7,33.7,51.8,33.3,51.8z M34.6,51.6c0.4-0.1,0.8-0.2,1.2-0.3
	C35.4,51.4,35,51.5,34.6,51.6z M36.1,51.2c0.3-0.1,0.6-0.2,0.9-0.3C36.7,51.1,36.4,51.1,36.1,51.2z M37.4,50.8
	c0.3-0.1,0.6-0.2,0.9-0.3C38,50.6,37.7,50.7,37.4,50.8z M38.6,50.4c0.4-0.2,0.8-0.3,1.1-0.5C39.3,50.1,38.9,50.2,38.6,50.4z
	 M39.9,49.8c0.3-0.2,0.6-0.3,0.9-0.5C40.5,49.5,40.2,49.6,39.9,49.8z M41.1,49.1c0.3-0.2,0.6-0.3,0.8-0.5
	C41.7,48.8,41.4,49,41.1,49.1z M42.2,48.5c0.3-0.2,0.7-0.5,1-0.7C42.9,48,42.5,48.2,42.2,48.5z M43.3,47.7c0.3-0.2,0.6-0.5,0.8-0.7
	C43.9,47.2,43.6,47.4,43.3,47.7z M44.4,46.8c0.2-0.2,0.5-0.4,0.7-0.7C44.9,46.3,44.6,46.6,44.4,46.8z M45.3,45.9
	c0.6-0.6,1.2-1.2,1.7-1.8C46.5,44.7,45.9,45.3,45.3,45.9z M47.2,43.8c0.2-0.3,0.4-0.5,0.6-0.8C47.6,43.3,47.4,43.6,47.2,43.8z
	 M47.9,42.8c0.2-0.3,0.5-0.7,0.7-1C48.4,42.1,48.2,42.5,47.9,42.8z M34.7,35.1l-8.5-8.5L11.7,41.2c0.7,1.2,1.5,2.3,2.4,3.4
	c-3.3-3.8-5.2-8.7-5.2-14c0-11.9,9.6-21.5,21.5-21.5s21.5,9.6,21.5,21.5c0,4.1-1.2,7.9-3.1,11.2L38.3,31.5L34.7,35.1"/>
<path class="st0" d="M24.1,3c2.1-0.5,4.2-0.7,6.4-0.7c15.6,0,28.2,12.7,28.2,28.2c0,2.2-0.3,4.3-0.7,6.4l0.8,0.8
	c0.6-2.3,0.9-4.7,0.9-7.2c0-16.1-13.1-29.2-29.2-29.2c-2.6,0-5,0.3-7.4,1C23.4,2.5,23.7,2.7,24.1,3z"/>
<path class="st0" d="M46.5,53.7c-4.6,3.1-10.1,5-16,5C14.9,58.7,2.3,46,2.3,30.5c0-6.3,2.1-12.1,5.6-16.8c-0.1-0.4-0.2-0.8-0.3-1.2
	c-3.9,5-6.3,11.2-6.3,18.1c0,16.1,13.1,29.2,29.2,29.2c6.2,0,12-2,16.7-5.3L46.5,53.7z"/>
</svg>
