<?xml version="1.0" encoding="utf-8"?>
<!-- Generator: Adobe Illustrator 26.2.1, SVG Export Plug-In . SVG Version: 6.00 Build 0)  -->
<svg version="1.1" id="a" xmlns="http://www.w3.org/2000/svg" xmlns:xlink="http://www.w3.org/1999/xlink" x="0px" y="0px"
	 viewBox="0 0 167.1 61.5" style="enable-background:new 0 0 167.1 61.5;" xml:space="preserve">
<style type="text/css">
	.st0{fill:#FFFFFF;}
	.st1{fill:#2DB5FF;}
</style>
<g>
	<path class="st0" d="M66.6,4.9c0.9,0,1.7,0.1,2.3,0.3c0.6,0.2,1,0.6,1.3,1c0.3,0.5,0.4,1.2,0.4,2.1c0,0.6-0.1,1.2-0.2,1.6
		c-0.1,0.4-0.4,0.8-0.7,1s-0.7,0.4-1.3,0.5v0.1c0.2,0,0.4,0.1,0.6,0.3s0.4,0.3,0.6,0.6c0.2,0.2,0.3,0.5,0.4,0.9l1.1,3.7h-1.8l-1-3.7
		c-0.1-0.4-0.3-0.7-0.6-0.9C67.4,12.1,67,12,66.6,12c-0.7,0-1.3,0-1.9,0c-0.5,0-1,0-1.3,0c-0.3,0-0.6,0-0.9,0l0.1-1.4h3.9
		c0.6,0,1-0.1,1.3-0.2s0.6-0.3,0.7-0.6c0.1-0.3,0.2-0.7,0.2-1.3s-0.1-1-0.2-1.3c-0.1-0.3-0.4-0.5-0.7-0.6c-0.3-0.1-0.8-0.2-1.3-0.2
		c-1,0-1.8,0-2.5,0c-0.7,0-1.2,0-1.4,0l-0.2-1.3C62.9,5,63.3,5,63.7,5c0.4,0,0.8,0,1.3,0C65.5,4.9,66,4.9,66.6,4.9L66.6,4.9z
		 M64.2,5.1v11.8h-1.7V5.1L64.2,5.1L64.2,5.1z"/>
	<path class="st0" d="M75.5,5.1h1.8c0.6,0,1.2,0,1.8,0c0.6,0,1.1,0,1.7,0.1l-0.1,1.3h-4.7c-0.3,0-0.6,0.1-0.8,0.3s-0.2,0.4-0.2,0.8
		v6.9c0,0.4,0.1,0.7,0.2,0.8c0.2,0.2,0.4,0.3,0.8,0.3h4.7l0.1,1.3c-0.5,0-1.1,0.1-1.7,0.1c-0.6,0-1.2,0-1.8,0c-0.6,0-1.2,0-1.8,0
		c-0.7,0-1.3-0.2-1.7-0.6s-0.6-0.9-0.7-1.5V7.2c0-0.6,0.2-1.2,0.7-1.5C74.2,5.2,74.7,5.1,75.5,5.1z M73.4,10h6.5v1.3h-6.5V10z"/>
	<path class="st0" d="M91.9,5.1l-3.6,11.4c-0.1,0.1-0.1,0.2-0.2,0.3c-0.1,0.1-0.3,0.1-0.4,0.1h-1.7c-0.2,0-0.3-0.1-0.4-0.1
		c-0.1-0.1-0.2-0.2-0.2-0.3L81.7,5.1h1.8l2.7,9.2c0.1,0.2,0.1,0.4,0.2,0.6c0.1,0.2,0.1,0.4,0.2,0.6H87c0.1-0.2,0.1-0.4,0.2-0.6
		c0.1-0.2,0.1-0.4,0.2-0.6l2.7-9.2L91.9,5.1L91.9,5.1z"/>
	<path class="st0" d="M97.8,4.8c0.9,0,1.6,0.1,2.2,0.3c0.6,0.2,1.1,0.5,1.5,1s0.6,1.1,0.8,1.9c0.2,0.8,0.3,1.8,0.3,2.9
		s-0.1,2.1-0.3,2.9c-0.2,0.8-0.4,1.4-0.8,1.9c-0.4,0.5-0.9,0.8-1.5,1s-1.4,0.3-2.2,0.3s-1.6-0.1-2.2-0.3c-0.6-0.2-1.1-0.5-1.5-1
		c-0.4-0.5-0.7-1.1-0.8-1.9C93.1,13.1,93,12.1,93,11s0.1-2.1,0.3-2.9s0.5-1.4,0.8-1.9c0.4-0.5,0.9-0.8,1.5-1
		C96.2,4.9,97,4.8,97.8,4.8z M97.8,6.3c-0.7,0-1.3,0.1-1.8,0.4c-0.4,0.3-0.7,0.8-0.9,1.4c-0.2,0.7-0.3,1.6-0.3,2.8s0.1,2.1,0.3,2.8
		c0.2,0.7,0.5,1.2,0.9,1.4c0.4,0.3,1,0.4,1.8,0.4c0.7,0,1.3-0.1,1.8-0.4c0.4-0.3,0.7-0.8,0.9-1.4c0.2-0.7,0.3-1.6,0.3-2.8
		s-0.1-2.1-0.3-2.8c-0.2-0.7-0.5-1.1-0.9-1.4C99.2,6.5,98.6,6.3,97.8,6.3z"/>
	<path class="st0" d="M106.8,5.1v9.3c0,0.4,0.1,0.6,0.3,0.8c0.2,0.2,0.5,0.3,0.9,0.3h4.3l0.1,1.3c-0.8,0.1-1.6,0.1-2.4,0.1
		c-0.8,0-1.6,0-2.4,0c-0.9,0-1.5-0.2-1.9-0.6c-0.4-0.4-0.6-1-0.6-1.6V5.1H106.8z"/>
	<path class="st0" d="M122.5,5.1v7.3c0,1.2-0.1,2.1-0.4,2.8c-0.3,0.7-0.7,1.2-1.4,1.5c-0.6,0.3-1.5,0.5-2.5,0.5s-2-0.2-2.6-0.5
		c-0.7-0.3-1.1-0.8-1.4-1.5c-0.3-0.7-0.4-1.6-0.4-2.8V5.1h1.7v7.3c0,0.8,0.1,1.5,0.3,2c0.2,0.5,0.5,0.8,0.9,1
		c0.4,0.2,0.9,0.3,1.6,0.3c0.7,0,1.2-0.1,1.6-0.3s0.7-0.5,0.9-1c0.2-0.5,0.3-1.1,0.3-2V5.1H122.5L122.5,5.1z"/>
	<path class="st0" d="M133.6,5.1v1.5h-9.3V5.1C124.3,5.1,133.6,5.1,133.6,5.1z M129.8,5.1v11.8h-1.7V5.1H129.8z"/>
	<path class="st0" d="M137.2,5.1v11.8h-1.7V5.1H137.2z"/>
	<path class="st0" d="M144.4,4.8c0.9,0,1.6,0.1,2.2,0.3c0.6,0.2,1.1,0.5,1.5,1s0.6,1.1,0.8,1.9c0.2,0.8,0.3,1.8,0.3,2.9
		s-0.1,2.1-0.3,2.9c-0.2,0.8-0.4,1.4-0.8,1.9c-0.4,0.5-0.9,0.8-1.5,1c-0.6,0.2-1.4,0.3-2.2,0.3s-1.6-0.1-2.2-0.3
		c-0.6-0.2-1.1-0.5-1.5-1c-0.4-0.5-0.7-1.1-0.8-1.9c-0.2-0.8-0.3-1.8-0.3-2.9s0.1-2.1,0.3-2.9s0.5-1.4,0.8-1.9
		c0.4-0.5,0.9-0.8,1.5-1C142.8,4.9,143.6,4.8,144.4,4.8z M144.4,6.3c-0.7,0-1.3,0.1-1.8,0.4c-0.4,0.3-0.7,0.8-0.9,1.4
		c-0.2,0.7-0.3,1.6-0.3,2.8s0.1,2.1,0.3,2.8c0.2,0.7,0.5,1.2,0.9,1.4c0.4,0.3,1,0.4,1.8,0.4c0.7,0,1.3-0.1,1.8-0.4
		c0.4-0.3,0.7-0.8,0.9-1.4c0.2-0.7,0.3-1.6,0.3-2.8s-0.1-2.1-0.3-2.8c-0.2-0.7-0.5-1.1-0.9-1.4C145.8,6.5,145.2,6.3,144.4,6.3z"/>
	<path class="st0" d="M161,5.1v11.2c0,0.4-0.2,0.7-0.6,0.7h-1.5c-0.2,0-0.3,0-0.5-0.1c-0.1-0.1-0.2-0.2-0.3-0.4l-3.9-8
		c-0.1-0.2-0.2-0.5-0.4-0.8c-0.1-0.3-0.2-0.6-0.3-0.8h-0.3c0,0.3,0,0.5,0.1,0.8c0,0.3,0,0.5,0,0.8v8.5h-1.7V5.7
		c0-0.4,0.2-0.7,0.7-0.7h1.4c0.2,0,0.3,0.1,0.5,0.1c0.1,0.1,0.2,0.2,0.3,0.4l3.8,7.8c0.1,0.2,0.3,0.5,0.4,0.8s0.3,0.6,0.4,0.9h0.3
		c0-0.3,0-0.6-0.1-0.9c0-0.3,0-0.6,0-0.9V5.1H161L161,5.1z"/>
	<path class="st0" d="M70.7,25.6v1.5h-9.3v-1.5C61.4,25.6,70.7,25.6,70.7,25.6z M66.9,25.6v11.8h-1.7V25.6H66.9z"/>
	<path class="st0" d="M74.8,25.6h1.8c0.6,0,1.2,0,1.8,0c0.6,0,1.1,0,1.7,0.1L79.9,27h-4.7c-0.3,0-0.6,0.1-0.8,0.3
		c-0.2,0.2-0.2,0.4-0.2,0.8V35c0,0.4,0.1,0.7,0.2,0.8c0.2,0.2,0.4,0.3,0.8,0.3h4.7l0.1,1.3c-0.5,0-1.1,0.1-1.7,0.1
		c-0.6,0-1.2,0-1.8,0c-0.6,0-1.2,0-1.8,0c-0.7,0-1.3-0.2-1.7-0.6c-0.4-0.4-0.6-0.9-0.7-1.5v-7.6c0-0.6,0.2-1.2,0.7-1.5
		C73.5,25.8,74.1,25.6,74.8,25.6L74.8,25.6z M72.8,30.6h6.5v1.3h-6.5V30.6z"/>
	<path class="st0" d="M86.5,25.4c0.5,0,1,0,1.3,0c0.4,0,0.7,0.1,1,0.1c0.3,0.1,0.6,0.1,1,0.2l-0.2,1.3c-0.3,0-0.7-0.1-1-0.1
		c-0.3,0-0.6,0-1,0c-0.3,0-0.7,0-1.2,0c-0.7,0-1.3,0.1-1.7,0.4c-0.4,0.3-0.7,0.8-0.9,1.4c-0.2,0.7-0.3,1.6-0.3,2.8
		c0,1.2,0.1,2.1,0.3,2.8c0.2,0.7,0.5,1.1,0.9,1.4c0.4,0.3,1,0.4,1.7,0.4s1.4,0,1.9,0s1-0.1,1.5-0.1l0.2,1.3c-0.5,0.1-1,0.3-1.6,0.3
		c-0.5,0.1-1.2,0.1-2,0.1c-1.2,0-2.1-0.2-2.8-0.6c-0.7-0.4-1.2-1-1.5-1.9c-0.3-0.9-0.5-2.1-0.5-3.6s0.2-2.7,0.5-3.6
		c0.3-0.9,0.8-1.5,1.5-1.9C84.4,25.6,85.3,25.4,86.5,25.4L86.5,25.4z"/>
	<path class="st0" d="M93.8,25.6v11.8h-1.7V25.6H93.8z M99.3,30.4v1.4h-5.6v-1.4H99.3z M100.8,25.6v11.8h-1.7V25.6H100.8z"/>
	<path class="st0" d="M113,25.6v11.2c0,0.4-0.2,0.7-0.6,0.7h-1.5c-0.2,0-0.3-0.1-0.5-0.1c-0.1-0.1-0.2-0.2-0.3-0.4l-3.9-8
		c-0.1-0.2-0.2-0.5-0.4-0.8c-0.1-0.3-0.2-0.6-0.3-0.8h-0.3c0,0.3,0,0.5,0.1,0.8c0,0.3,0,0.5,0,0.8v8.5h-1.7V26.3
		c0-0.4,0.2-0.7,0.7-0.7h1.4c0.2,0,0.3,0.1,0.5,0.1c0.1,0.1,0.2,0.2,0.3,0.4l3.8,7.8c0.1,0.2,0.3,0.5,0.4,0.8s0.3,0.6,0.4,0.9h0.3
		c0-0.3,0-0.6-0.1-0.9c0-0.3,0-0.6,0-0.9v-8.2L113,25.6L113,25.6z"/>
	<path class="st0" d="M120.3,25.4c0.9,0,1.6,0.1,2.2,0.3c0.6,0.2,1.1,0.5,1.5,1s0.6,1.1,0.8,1.9c0.2,0.8,0.3,1.8,0.3,2.9
		c0,1.2-0.1,2.1-0.3,2.9c-0.2,0.8-0.4,1.4-0.8,1.9s-0.9,0.8-1.5,1s-1.4,0.3-2.2,0.3s-1.6-0.1-2.2-0.3c-0.6-0.2-1.1-0.5-1.5-1
		s-0.7-1.1-0.8-1.9s-0.3-1.8-0.3-2.9c0-1.2,0.1-2.1,0.3-2.9c0.2-0.8,0.5-1.4,0.8-1.9c0.4-0.5,0.9-0.8,1.5-1
		C118.7,25.5,119.4,25.4,120.3,25.4z M120.3,26.9c-0.7,0-1.3,0.1-1.8,0.4c-0.4,0.3-0.7,0.8-0.9,1.4c-0.2,0.7-0.3,1.6-0.3,2.8
		c0,1.2,0.1,2.1,0.3,2.8c0.2,0.7,0.5,1.2,0.9,1.4c0.4,0.3,1,0.4,1.8,0.4c0.7,0,1.3-0.1,1.8-0.4c0.4-0.3,0.7-0.8,0.9-1.4
		c0.2-0.7,0.3-1.6,0.3-2.8c0-1.2-0.1-2.1-0.3-2.8c-0.2-0.7-0.5-1.1-0.9-1.4C121.7,27,121.1,26.9,120.3,26.9z"/>
	<path class="st0" d="M129.2,25.6V35c0,0.4,0.1,0.6,0.3,0.8c0.2,0.2,0.5,0.3,0.9,0.3h4.3l0.1,1.3c-0.8,0.1-1.6,0.1-2.4,0.1
		c-0.8,0-1.6,0-2.4,0c-0.9,0-1.5-0.2-1.9-0.6c-0.4-0.4-0.6-1-0.6-1.6v-9.6L129.2,25.6L129.2,25.6z"/>
	<path class="st0" d="M140.6,25.4c0.9,0,1.6,0.1,2.2,0.3c0.6,0.2,1.1,0.5,1.5,1c0.4,0.5,0.6,1.1,0.8,1.9c0.2,0.8,0.3,1.8,0.3,2.9
		c0,1.2-0.1,2.1-0.3,2.9c-0.2,0.8-0.4,1.4-0.8,1.9c-0.4,0.5-0.9,0.8-1.5,1c-0.6,0.2-1.4,0.3-2.2,0.3s-1.6-0.1-2.2-0.3
		c-0.6-0.2-1.1-0.5-1.5-1c-0.4-0.5-0.7-1.1-0.8-1.9c-0.2-0.8-0.3-1.8-0.3-2.9c0-1.2,0.1-2.1,0.3-2.9c0.2-0.8,0.5-1.4,0.8-1.9
		c0.4-0.5,0.9-0.8,1.5-1C139,25.5,139.7,25.4,140.6,25.4z M140.6,26.9c-0.7,0-1.3,0.1-1.8,0.4c-0.4,0.3-0.7,0.8-0.9,1.4
		c-0.2,0.7-0.3,1.6-0.3,2.8c0,1.2,0.1,2.1,0.3,2.8c0.2,0.7,0.5,1.2,0.9,1.4c0.4,0.3,1,0.4,1.8,0.4s1.3-0.1,1.8-0.4
		c0.4-0.3,0.7-0.8,0.9-1.4c0.2-0.7,0.3-1.6,0.3-2.8c0-1.2-0.1-2.1-0.3-2.8c-0.2-0.7-0.5-1.1-0.9-1.4C142,27,141.4,26.9,140.6,26.9z"
		/>
	<path class="st0" d="M152.5,25.4c0.4,0,0.8,0,1.2,0c0.4,0,0.8,0.1,1.1,0.1c0.4,0.1,0.7,0.1,1.1,0.2l-0.2,1.3
		c-0.4,0-0.7-0.1-1.1-0.1c-0.4,0-0.7,0-1.1,0c-0.3,0-0.7,0-1,0c-0.6,0-1.1,0.1-1.6,0.2c-0.4,0.1-0.8,0.3-1,0.7
		c-0.3,0.3-0.4,0.8-0.5,1.4c-0.1,0.6-0.2,1.4-0.2,2.4c0,1.1,0.1,2,0.2,2.7c0.2,0.7,0.4,1.1,0.8,1.4c0.4,0.3,0.9,0.4,1.5,0.4
		c0.4,0,0.8-0.1,1.2-0.2c0.3-0.1,0.7-0.3,1-0.4c0.3-0.2,0.6-0.4,0.9-0.6l0.2,1c-0.2,0.2-0.5,0.5-0.8,0.8c-0.4,0.3-0.8,0.5-1.3,0.7
		c-0.5,0.2-1,0.3-1.6,0.3c-0.9,0-1.6-0.2-2.2-0.6s-1-1.1-1.2-2c-0.3-0.9-0.4-2.1-0.4-3.5c0-1.6,0.2-2.8,0.5-3.7
		c0.3-0.9,0.9-1.5,1.6-1.9C150.3,25.6,151.3,25.4,152.5,25.4L152.5,25.4z M156.2,30.6v6.8H155l-0.3-1.8l-0.2-0.4v-4.7H156.2
		L156.2,30.6z"/>
	<path class="st0" d="M167.1,25.6l-4,7.9h-1.6l-4-7.9h1.8l2.4,4.9c0.1,0.2,0.2,0.4,0.3,0.7c0.1,0.2,0.2,0.5,0.2,0.7h0.1
		c0.1-0.2,0.2-0.5,0.3-0.7c0.1-0.2,0.2-0.4,0.3-0.7l2.4-4.9L167.1,25.6L167.1,25.6z M163.1,32.3v5.1h-1.7v-5.1H163.1z"/>
	<path class="st0" d="M65.9,46c0.6,0,1.2,0,1.8,0.1c0.6,0,1.2,0.1,1.8,0.3l-0.1,1.2c-0.5,0-1.1,0-1.7-0.1c-0.6,0-1.2,0-1.8,0
		c-0.4,0-0.7,0-1,0c-0.3,0-0.5,0.1-0.7,0.2c-0.2,0.1-0.3,0.3-0.4,0.5c-0.1,0.2-0.1,0.5-0.1,0.9c0,0.6,0.1,1,0.3,1.3
		c0.2,0.3,0.6,0.4,1.1,0.6l2.4,0.6c0.9,0.2,1.6,0.6,1.9,1.2s0.5,1.3,0.5,2.2c0,0.7-0.1,1.2-0.2,1.7c-0.2,0.4-0.4,0.8-0.7,1
		s-0.8,0.4-1.3,0.5c-0.5,0.1-1.1,0.1-1.8,0.1c-0.4,0-0.9,0-1.6-0.1c-0.7,0-1.4-0.1-2.2-0.3l0.1-1.3c0.7,0,1.2,0,1.7,0.1
		c0.4,0,0.8,0,1.1,0h0.9c0.6,0,1,0,1.4-0.1c0.3-0.1,0.6-0.3,0.7-0.5c0.1-0.3,0.2-0.6,0.2-1.1c0-0.4-0.1-0.8-0.1-1
		c-0.1-0.2-0.3-0.4-0.5-0.5c-0.2-0.1-0.5-0.2-0.8-0.3l-2.5-0.7c-0.9-0.2-1.5-0.6-1.8-1.1c-0.3-0.5-0.5-1.3-0.5-2.2
		c0-0.7,0.1-1.2,0.2-1.7c0.2-0.4,0.4-0.7,0.7-0.9s0.7-0.4,1.2-0.4C64.6,46,65.2,46,65.9,46L65.9,46z"/>
	<path class="st0" d="M76.6,46c0.9,0,1.6,0.1,2.2,0.3c0.6,0.2,1.1,0.5,1.5,1c0.4,0.5,0.6,1.1,0.8,1.9c0.2,0.8,0.3,1.8,0.3,2.9
		c0,1.2-0.1,2.1-0.3,2.9c-0.2,0.8-0.4,1.4-0.8,1.9c-0.4,0.5-0.9,0.8-1.5,1s-1.4,0.3-2.2,0.3c-0.9,0-1.6-0.1-2.2-0.3
		c-0.6-0.2-1.1-0.5-1.5-1c-0.4-0.5-0.7-1.1-0.8-1.9c-0.2-0.8-0.3-1.8-0.3-2.9c0-1.2,0.1-2.1,0.3-2.9c0.2-0.8,0.5-1.4,0.8-1.9
		c0.4-0.5,0.9-0.8,1.5-1C75,46.1,75.7,46,76.6,46z M76.6,47.5c-0.7,0-1.3,0.1-1.8,0.4c-0.4,0.3-0.7,0.8-0.9,1.4
		c-0.2,0.7-0.3,1.6-0.3,2.8c0,1.2,0.1,2.1,0.3,2.8c0.2,0.7,0.5,1.2,0.9,1.4c0.4,0.3,1,0.4,1.8,0.4c0.7,0,1.3-0.1,1.8-0.4
		c0.4-0.3,0.7-0.8,0.9-1.4c0.2-0.7,0.3-1.6,0.3-2.8c0-1.2-0.1-2.1-0.3-2.8c-0.2-0.7-0.5-1.1-0.9-1.4C77.9,47.6,77.3,47.5,76.6,47.5z
		"/>
	<path class="st0" d="M85.5,46.2v9.3c0,0.4,0.1,0.6,0.3,0.8c0.2,0.2,0.5,0.3,0.9,0.3h4.3l0.1,1.3C90.2,58,89.4,58,88.6,58
		s-1.6,0-2.4,0c-0.9,0-1.5-0.2-1.9-0.6c-0.4-0.4-0.6-1-0.6-1.6v-9.6L85.5,46.2L85.5,46.2z"/>
	<path class="st0" d="M101.3,46.2v7.3c0,1.2-0.1,2.1-0.4,2.8c-0.3,0.7-0.7,1.2-1.4,1.5c-0.6,0.3-1.5,0.5-2.5,0.5s-2-0.2-2.6-0.5
		c-0.7-0.3-1.1-0.8-1.4-1.5s-0.4-1.6-0.4-2.8v-7.3h1.7v7.3c0,0.8,0.1,1.5,0.3,2c0.2,0.5,0.5,0.8,0.9,1c0.4,0.2,0.9,0.3,1.6,0.3
		c0.7,0,1.2-0.1,1.6-0.3c0.4-0.2,0.7-0.5,0.9-1c0.2-0.5,0.3-1.1,0.3-2v-7.3H101.3L101.3,46.2z"/>
	<path class="st0" d="M112.4,46.2v1.5H103v-1.5H112.4z M108.6,46.2V58h-1.7V46.2H108.6z"/>
	<path class="st0" d="M115.9,46.2V58h-1.7V46.2H115.9z"/>
	<path class="st0" d="M123.2,46c0.9,0,1.6,0.1,2.2,0.3c0.6,0.2,1.1,0.5,1.5,1c0.4,0.5,0.6,1.1,0.8,1.9c0.2,0.8,0.3,1.8,0.3,2.9
		c0,1.2-0.1,2.1-0.3,2.9c-0.2,0.8-0.4,1.4-0.8,1.9c-0.4,0.5-0.9,0.8-1.5,1s-1.4,0.3-2.2,0.3s-1.6-0.1-2.2-0.3
		c-0.6-0.2-1.1-0.5-1.5-1c-0.4-0.5-0.7-1.1-0.8-1.9c-0.2-0.8-0.3-1.8-0.3-2.9c0-1.2,0.1-2.1,0.3-2.9c0.2-0.8,0.5-1.4,0.8-1.9
		c0.4-0.5,0.9-0.8,1.5-1C121.6,46.1,122.3,46,123.2,46z M123.2,47.5c-0.7,0-1.3,0.1-1.8,0.4c-0.4,0.3-0.7,0.8-0.9,1.4
		c-0.2,0.7-0.3,1.6-0.3,2.8c0,1.2,0.1,2.1,0.3,2.8c0.2,0.7,0.5,1.2,0.9,1.4c0.4,0.3,1,0.4,1.8,0.4c0.7,0,1.3-0.1,1.8-0.4
		c0.4-0.3,0.7-0.8,0.9-1.4s0.3-1.6,0.3-2.8c0-1.2-0.1-2.1-0.3-2.8c-0.2-0.7-0.5-1.1-0.9-1.4C124.5,47.6,123.9,47.5,123.2,47.5z"/>
	<path class="st0" d="M139.8,46.2v11.2c0,0.4-0.2,0.7-0.6,0.7h-1.5c-0.2,0-0.3,0-0.5-0.1c-0.1-0.1-0.2-0.2-0.3-0.4l-3.9-8
		c-0.1-0.2-0.2-0.5-0.4-0.8s-0.2-0.6-0.3-0.8h-0.3c0,0.3,0,0.5,0.1,0.8c0,0.3,0,0.5,0,0.8V58h-1.7V46.9c0-0.4,0.2-0.7,0.7-0.7h1.4
		c0.2,0,0.3,0.1,0.5,0.1c0.1,0.1,0.2,0.2,0.3,0.4l3.8,7.8c0.1,0.2,0.3,0.5,0.4,0.8c0.1,0.3,0.3,0.6,0.4,0.9h0.3c0-0.3,0-0.6-0.1-0.9
		c0-0.3,0-0.6,0-0.9v-8.2L139.8,46.2L139.8,46.2z"/>
	<path class="st0" d="M146.1,46c0.6,0,1.2,0,1.8,0.1c0.6,0,1.2,0.1,1.8,0.3l-0.1,1.2c-0.5,0-1.1,0-1.7-0.1c-0.6,0-1.2,0-1.8,0
		c-0.4,0-0.7,0-1,0c-0.3,0-0.5,0.1-0.7,0.2c-0.2,0.1-0.3,0.3-0.4,0.5c-0.1,0.2-0.1,0.5-0.1,0.9c0,0.6,0.1,1,0.3,1.3
		c0.2,0.3,0.6,0.4,1.1,0.6l2.4,0.6c0.9,0.2,1.6,0.6,1.9,1.2c0.3,0.5,0.5,1.3,0.5,2.2c0,0.7-0.1,1.2-0.2,1.7c-0.2,0.4-0.4,0.8-0.7,1
		c-0.3,0.2-0.8,0.4-1.3,0.5c-0.5,0.1-1.1,0.1-1.8,0.1c-0.4,0-0.9,0-1.6-0.1c-0.7,0-1.4-0.1-2.2-0.3l0.1-1.3c0.7,0,1.2,0,1.7,0.1
		c0.4,0,0.8,0,1.1,0h0.9c0.6,0,1,0,1.4-0.1c0.3-0.1,0.6-0.3,0.7-0.5c0.1-0.3,0.2-0.6,0.2-1.1c0-0.4-0.1-0.8-0.1-1
		c-0.1-0.2-0.3-0.4-0.5-0.5c-0.2-0.1-0.5-0.2-0.8-0.3l-2.5-0.7c-0.9-0.2-1.5-0.6-1.8-1.1c-0.3-0.5-0.5-1.3-0.5-2.2
		c0-0.7,0.1-1.2,0.2-1.7c0.2-0.4,0.4-0.7,0.7-0.9c0.3-0.2,0.7-0.4,1.2-0.4C144.8,46,145.4,46,146.1,46L146.1,46z"/>
</g>
<path class="st1" d="M29.1,4.8C14.7,4.8,3,16.4,3,30.9S14.7,57,29.1,57s26.1-11.7,26.1-26.1S43.5,4.8,29.1,4.8z M29,52.3
	c-0.5,0-0.9,0-1.3,0C28.1,52.3,28.6,52.3,29,52.3c0.5,0,0.9,0,1.3,0C29.9,52.3,29.4,52.3,29,52.3z M12.8,44.9c0.9,1,1.9,2,3,2.8
	C14.7,46.9,13.7,46,12.8,44.9z M15.8,47.8c0.7,0.5,1.4,1.1,2.2,1.5C17.3,48.9,16.5,48.4,15.8,47.8z M18.2,49.4
	c0.3,0.2,0.7,0.4,1,0.6C18.8,49.8,18.5,49.6,18.2,49.4z M19.4,50.1c0.4,0.2,0.8,0.4,1.2,0.5C20.2,50.4,19.8,50.3,19.4,50.1z
	 M20.6,50.6c0.4,0.2,0.8,0.3,1.2,0.5C21.4,50.9,21,50.8,20.6,50.6z M22.1,51.2c0.3,0.1,0.7,0.2,1,0.3C22.7,51.4,22.4,51.3,22.1,51.2
	z M23.4,51.6c0.4,0.1,0.8,0.2,1.2,0.3C24.2,51.8,23.8,51.7,23.4,51.6z M24.7,51.9c0.4,0.1,0.9,0.2,1.3,0.2
	C25.5,52,25.1,52,24.7,51.9z M26.3,52.2c0.3,0,0.7,0.1,1,0.1C27,52.2,26.6,52.2,26.3,52.2z M30.7,52.3c0.3,0,0.6-0.1,0.9-0.1
	C31.3,52.2,31,52.2,30.7,52.3z M32,52.1c0.4,0,0.7-0.1,1.1-0.2C32.8,52,32.4,52.1,32,52.1z M33.3,51.9c0.4-0.1,0.8-0.2,1.2-0.3
	C34.1,51.7,33.7,51.8,33.3,51.9z M34.8,51.5c0.3-0.1,0.6-0.2,0.9-0.3C35.4,51.3,35.1,51.4,34.8,51.5z M36.1,51.1
	c0.3-0.1,0.6-0.2,0.9-0.3C36.7,50.9,36.4,51,36.1,51.1z M37.3,50.7c0.4-0.2,0.8-0.3,1.1-0.5C38.1,50.4,37.7,50.5,37.3,50.7z
	 M38.7,50.1c0.3-0.2,0.6-0.3,0.9-0.5C39.2,49.8,38.9,49.9,38.7,50.1z M39.8,49.4c0.3-0.2,0.6-0.3,0.8-0.5
	C40.4,49.1,40.1,49.3,39.8,49.4z M40.9,48.8c0.3-0.2,0.7-0.5,1-0.7C41.6,48.3,41.2,48.5,40.9,48.8z M42,48c0.3-0.2,0.6-0.5,0.8-0.7
	C42.6,47.5,42.3,47.7,42,48z M43.1,47.1c0.2-0.2,0.5-0.4,0.7-0.7C43.6,46.6,43.4,46.8,43.1,47.1z M44.1,46.2
	c0.6-0.6,1.2-1.2,1.7-1.8C45.2,45,44.6,45.6,44.1,46.2z M45.9,44.1c0.2-0.3,0.4-0.5,0.6-0.8C46.3,43.6,46.1,43.9,45.9,44.1z
	 M46.7,43.1c0.2-0.3,0.5-0.7,0.7-1C47.1,42.4,46.9,42.7,46.7,43.1z M33.5,35.4L25,26.9L10.4,41.5c0.7,1.2,1.5,2.3,2.4,3.4
	c-3.3-3.8-5.2-8.7-5.2-14C7.5,19,17.1,9.4,29,9.4S50.5,19,50.5,30.9c0,4.1-1.2,7.9-3.1,11.2L37.1,31.8L33.5,35.4"/>
<path class="st0" d="M22.8,3.3c2.1-0.5,4.2-0.7,6.4-0.7c15.6,0,28.2,12.7,28.2,28.2c0,2.2-0.3,4.3-0.7,6.4l0.8,0.8
	c0.6-2.3,0.9-4.7,0.9-7.2c0-16.1-13.1-29.2-29.2-29.2c-2.6,0-5,0.3-7.4,1C22.1,2.7,22.5,3,22.8,3.3z"/>
<path class="st0" d="M35,58.3c-1.9,0.4-3.8,0.6-5.8,0.6C13.7,59,1,46.3,1,30.8c0-2,0.2-4,0.6-5.9c-0.3-0.4-0.5-0.8-0.7-1.2
	C0.3,25.9,0,28.3,0,30.8C0,46.9,13.1,60,29.2,60c2.3,0,4.5-0.3,6.7-0.8C35.6,58.9,35.3,58.6,35,58.3z"/>
</svg>
