<?xml version="1.0" encoding="utf-8"?>
<!-- Generator: Adobe Illustrator 26.2.1, SVG Export Plug-In . SVG Version: 6.00 Build 0)  -->
<svg version="1.1" id="a" xmlns="http://www.w3.org/2000/svg" xmlns:xlink="http://www.w3.org/1999/xlink" x="0px" y="0px"
	 viewBox="0 0 167.1 61.5" style="enable-background:new 0 0 167.1 61.5;" xml:space="preserve">
<style type="text/css">
	.st0{fill:#2DB5FF;}
	.st1{fill:#FFFFFF;}
</style>
<g>
	<g>
		<path d="M74.3,10.1c0.7,0,1.3,0.1,1.7,0.2c0.4,0.1,0.8,0.4,1,0.8s0.3,0.9,0.3,1.6c0,0.5-0.1,0.9-0.2,1.2c-0.1,0.3-0.3,0.6-0.5,0.8
			c-0.2,0.2-0.6,0.3-1,0.4v0.1c0.1,0,0.3,0.1,0.4,0.2s0.3,0.2,0.4,0.4c0.1,0.2,0.2,0.4,0.3,0.7l0.8,2.8h-1.4l-0.8-2.8
			c-0.1-0.3-0.2-0.6-0.4-0.7c-0.2-0.1-0.4-0.2-0.7-0.2c-0.5,0-1,0-1.4,0s-0.7,0-1,0c-0.3,0-0.5,0-0.6,0l0-1h3c0.4,0,0.8-0.1,1-0.1
			c0.2-0.1,0.4-0.2,0.5-0.5c0.1-0.2,0.2-0.6,0.2-1s0-0.8-0.2-1c-0.1-0.2-0.3-0.4-0.5-0.5c-0.2-0.1-0.6-0.1-1-0.1c-0.7,0-1.4,0-1.9,0
			c-0.5,0-0.9,0-1.1,0l-0.2-1c0.3,0,0.6-0.1,0.9-0.1c0.3,0,0.6,0,1,0C73.4,10.1,73.8,10.1,74.3,10.1L74.3,10.1z M72.4,10.2v9h-1.3
			v-9L72.4,10.2L72.4,10.2z"/>
		<path d="M80.9,10.2h1.3c0.4,0,0.9,0,1.3,0c0.4,0,0.9,0,1.2,0.1l-0.1,1h-3.6c-0.3,0-0.5,0.1-0.6,0.2c-0.1,0.1-0.2,0.3-0.2,0.6v5.2
			c0,0.3,0.1,0.5,0.2,0.6c0.1,0.1,0.3,0.2,0.6,0.2h3.6l0.1,1c-0.4,0-0.8,0-1.2,0.1c-0.4,0-0.9,0-1.3,0c-0.4,0-0.9,0-1.3,0
			c-0.5,0-1-0.2-1.3-0.4s-0.5-0.7-0.5-1.2v-5.8c0-0.5,0.2-0.9,0.5-1.2C80,10.4,80.4,10.2,80.9,10.2z M79.4,14h4.9v1h-4.9V14z"/>
		<path d="M93.3,10.2l-2.7,8.6c0,0.1-0.1,0.2-0.2,0.2c-0.1,0.1-0.2,0.1-0.3,0.1h-1.3c-0.1,0-0.2,0-0.3-0.1s-0.2-0.2-0.2-0.2
			l-2.7-8.6H87l2,7c0,0.2,0.1,0.3,0.1,0.5s0.1,0.3,0.1,0.5h0.3c0-0.2,0.1-0.3,0.1-0.5c0-0.2,0.1-0.3,0.1-0.5l2-7L93.3,10.2
			L93.3,10.2z"/>
		<path d="M97.7,10.1c0.7,0,1.2,0.1,1.7,0.2c0.5,0.2,0.8,0.4,1.1,0.8s0.5,0.8,0.6,1.4c0.1,0.6,0.2,1.3,0.2,2.2s-0.1,1.6-0.2,2.2
			c-0.1,0.6-0.3,1.1-0.6,1.4s-0.7,0.6-1.1,0.8c-0.5,0.2-1,0.2-1.7,0.2s-1.2-0.1-1.7-0.2c-0.5-0.2-0.8-0.4-1.1-0.8s-0.5-0.8-0.6-1.4
			c-0.1-0.6-0.2-1.3-0.2-2.2s0.1-1.6,0.2-2.2s0.3-1.1,0.6-1.4c0.3-0.3,0.7-0.6,1.1-0.8C96.5,10.1,97.1,10.1,97.7,10.1z M97.7,11.2
			c-0.6,0-1,0.1-1.3,0.3c-0.3,0.2-0.6,0.6-0.7,1.1c-0.1,0.5-0.2,1.2-0.2,2.1s0.1,1.6,0.2,2.1c0.1,0.5,0.4,0.9,0.7,1.1
			c0.3,0.2,0.8,0.3,1.3,0.3s1-0.1,1.3-0.3c0.3-0.2,0.6-0.6,0.7-1.1s0.2-1.2,0.2-2.1s-0.1-1.6-0.2-2.1c-0.1-0.5-0.4-0.9-0.7-1.1
			C98.8,11.3,98.3,11.2,97.7,11.2z"/>
		<path d="M104.5,10.2v7.1c0,0.3,0.1,0.5,0.2,0.6s0.3,0.2,0.6,0.2h3.2l0.1,1c-0.6,0-1.2,0.1-1.8,0.1c-0.6,0-1.2,0-1.8,0
			c-0.7,0-1.1-0.2-1.4-0.5c-0.3-0.3-0.4-0.7-0.4-1.2v-7.3H104.5z"/>
		<path d="M116.3,10.2v5.5c0,0.9-0.1,1.6-0.3,2.1s-0.6,0.9-1,1.2s-1.1,0.4-1.9,0.4s-1.5-0.1-2-0.4s-0.8-0.6-1.1-1.2
			c-0.2-0.5-0.3-1.2-0.3-2.1v-5.5h1.3v5.5c0,0.6,0.1,1.1,0.2,1.5c0.1,0.4,0.3,0.6,0.6,0.8s0.7,0.2,1.2,0.2s0.9-0.1,1.2-0.2
			s0.5-0.4,0.6-0.8c0.1-0.4,0.2-0.9,0.2-1.5v-5.5H116.3L116.3,10.2z"/>
		<path d="M124.6,10.2v1.1h-7v-1.1C117.6,10.2,124.6,10.2,124.6,10.2z M121.8,10.2v9h-1.3v-9H121.8z"/>
		<path d="M127.3,10.2v9H126v-9H127.3z"/>
		<path d="M132.8,10.1c0.7,0,1.2,0.1,1.7,0.2c0.5,0.2,0.8,0.4,1.1,0.8s0.5,0.8,0.6,1.4c0.1,0.6,0.2,1.3,0.2,2.2s-0.1,1.6-0.2,2.2
			c-0.1,0.6-0.3,1.1-0.6,1.4c-0.3,0.4-0.6,0.6-1.1,0.8c-0.5,0.2-1,0.2-1.7,0.2s-1.2-0.1-1.7-0.2c-0.5-0.2-0.8-0.4-1.1-0.8
			s-0.5-0.8-0.6-1.4c-0.1-0.6-0.2-1.3-0.2-2.2s0.1-1.6,0.2-2.2c0.1-0.6,0.3-1.1,0.6-1.4c0.3-0.3,0.6-0.6,1.1-0.8
			C131.6,10.1,132.1,10.1,132.8,10.1z M132.8,11.2c-0.6,0-1,0.1-1.3,0.3c-0.3,0.2-0.6,0.6-0.7,1.1c-0.1,0.5-0.2,1.2-0.2,2.1
			s0.1,1.6,0.2,2.1c0.1,0.5,0.4,0.9,0.7,1.1c0.3,0.2,0.8,0.3,1.3,0.3s1-0.1,1.3-0.3c0.3-0.2,0.6-0.6,0.7-1.1s0.2-1.2,0.2-2.1
			s-0.1-1.6-0.2-2.1c-0.1-0.5-0.4-0.9-0.7-1.1C133.8,11.3,133.4,11.2,132.8,11.2z"/>
		<path d="M145.3,10.2v8.5c0,0.3-0.2,0.5-0.5,0.5h-1.1c-0.1,0-0.3,0-0.3-0.1c-0.1-0.1-0.1-0.2-0.2-0.3l-2.9-6.1
			c-0.1-0.2-0.2-0.4-0.3-0.6c-0.1-0.2-0.2-0.4-0.2-0.6h-0.2c0,0.2,0,0.4,0,0.6c0,0.2,0,0.4,0,0.6v6.4h-1.3v-8.5
			c0-0.3,0.2-0.5,0.5-0.5h1.1c0.1,0,0.3,0,0.3,0.1c0.1,0.1,0.2,0.2,0.2,0.3l2.8,5.9c0.1,0.2,0.2,0.4,0.3,0.6s0.2,0.5,0.3,0.7h0.2
			c0-0.2,0-0.5,0-0.7c0-0.2,0-0.5,0-0.7v-6.2H145.3L145.3,10.2z"/>
		<path d="M77.3,25.8V27h-7v-1.1C70.3,25.8,77.3,25.8,77.3,25.8z M74.5,25.8v9h-1.3v-9H74.5z"/>
		<path d="M80.4,25.8h1.3c0.4,0,0.9,0,1.3,0c0.4,0,0.9,0,1.2,0.1l-0.1,1h-3.6c-0.3,0-0.5,0.1-0.6,0.2S80,27.4,80,27.7v5.2
			c0,0.3,0.1,0.5,0.2,0.6s0.3,0.2,0.6,0.2h3.6l0.1,1c-0.4,0-0.8,0-1.2,0.1c-0.4,0-0.9,0-1.3,0c-0.4,0-0.9,0-1.3,0
			c-0.5,0-1-0.1-1.3-0.4c-0.3-0.3-0.5-0.7-0.5-1.2v-5.8c0-0.5,0.2-0.9,0.5-1.2C79.5,25.9,79.9,25.8,80.4,25.8L80.4,25.8z M78.9,29.6
			h4.9v1h-4.9V29.6z"/>
		<path d="M89.2,25.7c0.4,0,0.7,0,1,0c0.3,0,0.5,0,0.8,0.1c0.2,0,0.5,0.1,0.7,0.2l-0.1,1c-0.3,0-0.5,0-0.7-0.1s-0.5,0-0.7,0
			c-0.2,0-0.6,0-0.9,0c-0.6,0-1,0.1-1.3,0.3c-0.3,0.2-0.6,0.6-0.7,1.1S87,29.4,87,30.3s0.1,1.6,0.2,2.1c0.1,0.5,0.4,0.9,0.7,1.1
			c0.3,0.2,0.8,0.3,1.3,0.3s1,0,1.4,0s0.8-0.1,1.1-0.1l0.1,1c-0.4,0.1-0.8,0.2-1.2,0.2c-0.4,0-0.9,0.1-1.5,0.1
			c-0.9,0-1.6-0.2-2.1-0.5s-0.9-0.8-1.1-1.5c-0.2-0.7-0.3-1.6-0.3-2.7s0.1-2,0.3-2.7c0.2-0.7,0.6-1.2,1.1-1.5
			C87.6,25.8,88.3,25.7,89.2,25.7L89.2,25.7z"/>
		<path d="M94.7,25.8v9h-1.3v-9H94.7z M98.8,29.5v1.1h-4.2v-1.1H98.8z M100,25.8v9h-1.3v-9H100z"/>
		<path d="M109.2,25.8v8.5c0,0.3-0.2,0.5-0.5,0.5h-1.1c-0.2,0-0.3,0-0.3-0.1c-0.1-0.1-0.2-0.2-0.2-0.3l-2.9-6.1
			c-0.1-0.2-0.2-0.4-0.3-0.6s-0.2-0.4-0.2-0.6h-0.2c0,0.2,0,0.4,0,0.6c0,0.2,0,0.4,0,0.6v6.4h-1.3v-8.5c0-0.3,0.2-0.5,0.5-0.5h1.1
			c0.2,0,0.3,0,0.3,0.1c0.1,0.1,0.2,0.2,0.2,0.3l2.8,5.9c0.1,0.2,0.2,0.4,0.3,0.6c0.1,0.2,0.2,0.5,0.3,0.7h0.2c0-0.2,0-0.5,0-0.7
			c0-0.2,0-0.5,0-0.7v-6.2L109.2,25.8L109.2,25.8z"/>
		<path d="M114.6,25.7c0.7,0,1.2,0.1,1.7,0.2c0.5,0.2,0.8,0.4,1.1,0.8s0.5,0.8,0.6,1.4c0.1,0.6,0.2,1.3,0.2,2.2s-0.1,1.6-0.2,2.2
			c-0.1,0.6-0.3,1.1-0.6,1.4s-0.7,0.6-1.1,0.8c-0.5,0.2-1,0.2-1.7,0.2s-1.2-0.1-1.7-0.2c-0.5-0.2-0.8-0.4-1.1-0.8s-0.5-0.8-0.6-1.4
			s-0.2-1.3-0.2-2.2s0.1-1.6,0.2-2.2s0.3-1.1,0.6-1.4c0.3-0.4,0.7-0.6,1.1-0.8C113.4,25.7,114,25.7,114.6,25.7z M114.6,26.8
			c-0.6,0-1,0.1-1.3,0.3c-0.3,0.2-0.6,0.6-0.7,1.1c-0.1,0.5-0.2,1.2-0.2,2.1s0.1,1.6,0.2,2.1c0.1,0.5,0.4,0.9,0.7,1.1
			c0.3,0.2,0.8,0.3,1.3,0.3s1-0.1,1.3-0.3c0.3-0.2,0.6-0.6,0.7-1.1c0.1-0.5,0.2-1.2,0.2-2.1s-0.1-1.6-0.2-2.1
			c-0.1-0.5-0.4-0.9-0.7-1.1C115.7,26.9,115.2,26.8,114.6,26.8z"/>
		<path d="M121.4,25.8v7.1c0,0.3,0.1,0.5,0.2,0.6c0.1,0.1,0.3,0.2,0.6,0.2h3.2l0.1,1c-0.6,0-1.2,0.1-1.8,0.1c-0.6,0-1.2,0-1.8,0
			c-0.7,0-1.1-0.2-1.4-0.5c-0.3-0.3-0.4-0.7-0.4-1.2v-7.3L121.4,25.8L121.4,25.8z"/>
		<path d="M129.9,25.7c0.7,0,1.2,0.1,1.7,0.2c0.5,0.2,0.8,0.4,1.1,0.8s0.5,0.8,0.6,1.4s0.2,1.3,0.2,2.2s-0.1,1.6-0.2,2.2
			c-0.1,0.6-0.3,1.1-0.6,1.4c-0.3,0.4-0.6,0.6-1.1,0.8c-0.5,0.2-1,0.2-1.7,0.2s-1.2-0.1-1.7-0.2c-0.5-0.2-0.8-0.4-1.1-0.8
			s-0.5-0.8-0.6-1.4s-0.2-1.3-0.2-2.2s0.1-1.6,0.2-2.2s0.3-1.1,0.6-1.4c0.3-0.4,0.7-0.6,1.1-0.8C128.7,25.7,129.3,25.7,129.9,25.7z
			 M129.9,26.8c-0.6,0-1,0.1-1.3,0.3c-0.3,0.2-0.6,0.6-0.7,1.1c-0.1,0.5-0.2,1.2-0.2,2.1s0.1,1.6,0.2,2.1c0.1,0.5,0.4,0.9,0.7,1.1
			c0.3,0.2,0.8,0.3,1.3,0.3s1-0.1,1.3-0.3c0.3-0.2,0.6-0.6,0.7-1.1c0.1-0.5,0.2-1.2,0.2-2.1s-0.1-1.6-0.2-2.1
			c-0.1-0.5-0.4-0.9-0.7-1.1C130.9,26.9,130.5,26.8,129.9,26.8z"/>
		<path d="M138.8,25.7c0.3,0,0.6,0,0.9,0c0.3,0,0.6,0,0.8,0.1c0.3,0,0.5,0.1,0.8,0.2l-0.1,1c-0.3,0-0.6,0-0.8-0.1
			c-0.3,0-0.5,0-0.8,0c-0.3,0-0.5,0-0.8,0c-0.5,0-0.9,0-1.2,0.1c-0.3,0.1-0.6,0.3-0.8,0.5s-0.3,0.6-0.4,1.1
			c-0.1,0.5-0.1,1.1-0.1,1.8c0,0.9,0.1,1.5,0.2,2c0.1,0.5,0.3,0.9,0.6,1.1c0.3,0.2,0.6,0.3,1.1,0.3c0.3,0,0.6,0,0.9-0.1
			s0.5-0.2,0.7-0.3c0.2-0.1,0.5-0.3,0.7-0.4l0.2,0.8c-0.2,0.2-0.4,0.4-0.6,0.6c-0.3,0.2-0.6,0.4-1,0.5c-0.4,0.1-0.8,0.2-1.2,0.2
			c-0.7,0-1.2-0.2-1.6-0.5c-0.4-0.3-0.7-0.8-0.9-1.5c-0.2-0.7-0.3-1.6-0.3-2.7c0-1.2,0.1-2.1,0.4-2.8c0.2-0.7,0.6-1.1,1.2-1.4
			C137.2,25.8,137.9,25.7,138.8,25.7L138.8,25.7z M141.7,29.6v5.2h-0.9l-0.2-1.3l-0.1-0.3v-3.6H141.7L141.7,29.6z"/>
		<path d="M149.8,25.8l-3,6h-1.2l-3-6h1.4l1.8,3.7c0.1,0.2,0.1,0.3,0.2,0.5c0.1,0.2,0.1,0.4,0.2,0.5h0.1c0.1-0.2,0.1-0.4,0.2-0.5
			s0.1-0.3,0.2-0.5l1.8-3.7L149.8,25.8L149.8,25.8z M146.8,30.9v3.9h-1.3v-3.9H146.8z"/>
		<path d="M73.7,41.3c0.4,0,0.9,0,1.4,0.1c0.5,0,0.9,0.1,1.4,0.2l-0.1,0.9c-0.4,0-0.8,0-1.2,0c-0.5,0-0.9,0-1.3,0
			c-0.3,0-0.6,0-0.8,0c-0.2,0-0.4,0.1-0.5,0.1s-0.2,0.2-0.3,0.4c-0.1,0.2-0.1,0.4-0.1,0.7c0,0.5,0.1,0.8,0.3,1
			c0.2,0.2,0.5,0.3,0.8,0.4l1.8,0.5c0.7,0.2,1.2,0.5,1.4,0.9c0.3,0.4,0.4,1,0.4,1.7c0,0.5-0.1,0.9-0.2,1.3c-0.1,0.3-0.3,0.6-0.6,0.7
			s-0.6,0.3-1,0.4s-0.8,0.1-1.4,0.1c-0.3,0-0.7,0-1.2,0c-0.5,0-1-0.1-1.7-0.2l0.1-0.9c0.5,0,0.9,0,1.2,0c0.3,0,0.6,0,0.8,0h0.7
			c0.4,0,0.8,0,1-0.1c0.2-0.1,0.4-0.2,0.5-0.4c0.1-0.2,0.2-0.5,0.2-0.8c0-0.3,0-0.6-0.1-0.8S75.2,47,75,46.9
			c-0.2-0.1-0.4-0.2-0.6-0.2l-1.9-0.5c-0.7-0.2-1.1-0.5-1.4-0.9c-0.3-0.4-0.4-0.9-0.4-1.6c0-0.5,0.1-0.9,0.2-1.3
			c0.1-0.3,0.3-0.6,0.5-0.7c0.2-0.2,0.6-0.3,0.9-0.3C72.7,41.3,73.2,41.3,73.7,41.3L73.7,41.3z"/>
		<path d="M81.8,41.3c0.7,0,1.2,0.1,1.7,0.2c0.5,0.2,0.8,0.4,1.1,0.8s0.5,0.8,0.6,1.4c0.1,0.6,0.2,1.3,0.2,2.2
			c0,0.9-0.1,1.6-0.2,2.2c-0.1,0.6-0.3,1.1-0.6,1.4c-0.3,0.4-0.7,0.6-1.1,0.8c-0.5,0.2-1,0.2-1.7,0.2s-1.2-0.1-1.7-0.2
			c-0.5-0.2-0.8-0.4-1.1-0.8s-0.5-0.8-0.6-1.4c-0.1-0.6-0.2-1.3-0.2-2.2c0-0.9,0.1-1.6,0.2-2.2c0.1-0.6,0.3-1.1,0.6-1.4
			s0.6-0.6,1.1-0.8C80.5,41.3,81.1,41.3,81.8,41.3z M81.8,42.4c-0.6,0-1,0.1-1.3,0.3s-0.6,0.6-0.7,1.1c-0.1,0.5-0.2,1.2-0.2,2.1
			s0.1,1.6,0.2,2.1c0.1,0.5,0.4,0.9,0.7,1.1c0.3,0.2,0.8,0.3,1.3,0.3s1-0.1,1.3-0.3c0.3-0.2,0.6-0.6,0.7-1.1
			c0.1-0.5,0.2-1.2,0.2-2.1s-0.1-1.6-0.2-2.1c-0.1-0.5-0.4-0.9-0.7-1.1C82.8,42.5,82.3,42.4,81.8,42.4z"/>
		<path d="M88.5,41.4v7.1c0,0.3,0.1,0.5,0.2,0.6c0.1,0.1,0.3,0.2,0.6,0.2h3.2l0.1,1c-0.6,0-1.2,0.1-1.8,0.1s-1.2,0-1.8,0
			c-0.7,0-1.1-0.2-1.4-0.5s-0.4-0.7-0.4-1.2v-7.3L88.5,41.4L88.5,41.4z"/>
		<path d="M100.3,41.4v5.5c0,0.9-0.1,1.6-0.3,2.1s-0.6,0.9-1,1.2c-0.5,0.2-1.1,0.4-1.9,0.4s-1.5-0.1-2-0.4c-0.5-0.2-0.8-0.6-1.1-1.2
			s-0.3-1.2-0.3-2.1v-5.5H95v5.5c0,0.6,0.1,1.1,0.2,1.5c0.1,0.4,0.3,0.6,0.6,0.8c0.3,0.1,0.7,0.2,1.2,0.2s0.9-0.1,1.2-0.2
			c0.3-0.2,0.5-0.4,0.6-0.8c0.1-0.4,0.2-0.9,0.2-1.5v-5.5H100.3L100.3,41.4z"/>
		<path d="M108.7,41.4v1.1h-7v-1.1H108.7z M105.8,41.4v9h-1.3v-9H105.8z"/>
		<path d="M111.4,41.4v9h-1.3v-9H111.4z"/>
		<path d="M116.8,41.3c0.7,0,1.2,0.1,1.7,0.2c0.5,0.2,0.8,0.4,1.1,0.8s0.5,0.8,0.6,1.4c0.1,0.6,0.2,1.3,0.2,2.2
			c0,0.9-0.1,1.6-0.2,2.2c-0.1,0.6-0.3,1.1-0.6,1.4c-0.3,0.4-0.7,0.6-1.1,0.8c-0.5,0.2-1,0.2-1.7,0.2s-1.2-0.1-1.7-0.2
			c-0.5-0.2-0.8-0.4-1.1-0.8s-0.5-0.8-0.6-1.4c-0.1-0.6-0.2-1.3-0.2-2.2c0-0.9,0.1-1.6,0.2-2.2c0.1-0.6,0.3-1.1,0.6-1.4
			s0.7-0.6,1.1-0.8C115.6,41.3,116.2,41.3,116.8,41.3z M116.8,42.4c-0.6,0-1,0.1-1.3,0.3c-0.3,0.2-0.6,0.6-0.7,1.1
			c-0.1,0.5-0.2,1.2-0.2,2.1s0.1,1.6,0.2,2.1c0.1,0.5,0.4,0.9,0.7,1.1c0.3,0.2,0.8,0.3,1.3,0.3s1-0.1,1.3-0.3
			c0.3-0.2,0.6-0.6,0.7-1.1c0.1-0.5,0.2-1.2,0.2-2.1s-0.1-1.6-0.2-2.1c-0.1-0.5-0.4-0.9-0.7-1.1C117.8,42.5,117.4,42.4,116.8,42.4z"
			/>
		<path d="M129.3,41.4v8.5c0,0.3-0.2,0.5-0.5,0.5h-1.1c-0.2,0-0.3,0-0.3-0.1c-0.1-0.1-0.2-0.2-0.2-0.3l-2.9-6.1
			c-0.1-0.2-0.2-0.4-0.3-0.6s-0.2-0.4-0.2-0.6h-0.2c0,0.2,0,0.4,0,0.6c0,0.2,0,0.4,0,0.6v6.5h-1.3v-8.5c0-0.3,0.2-0.5,0.5-0.5h1.1
			c0.2,0,0.3,0,0.3,0.1c0.1,0.1,0.2,0.2,0.2,0.3l2.8,5.9c0.1,0.2,0.2,0.4,0.3,0.6c0.1,0.2,0.2,0.5,0.3,0.7h0.2c0-0.2,0-0.5,0-0.7
			c0-0.2,0-0.5,0-0.7v-6.2L129.3,41.4L129.3,41.4z"/>
		<path d="M134.1,41.3c0.4,0,0.9,0,1.4,0.1c0.5,0,0.9,0.1,1.4,0.2l-0.1,0.9c-0.4,0-0.8,0-1.2,0c-0.5,0-0.9,0-1.3,0
			c-0.3,0-0.6,0-0.8,0c-0.2,0-0.4,0.1-0.5,0.1c-0.1,0.1-0.2,0.2-0.3,0.4c-0.1,0.2-0.1,0.4-0.1,0.7c0,0.5,0.1,0.8,0.3,1
			c0.2,0.2,0.5,0.3,0.8,0.4l1.8,0.5c0.7,0.2,1.2,0.5,1.4,0.9c0.3,0.4,0.4,1,0.4,1.7c0,0.5-0.1,0.9-0.2,1.3c-0.1,0.3-0.3,0.6-0.6,0.7
			s-0.6,0.3-1,0.4c-0.4,0.1-0.9,0.1-1.4,0.1c-0.3,0-0.7,0-1.2,0c-0.5,0-1-0.1-1.7-0.2l0.1-0.9c0.5,0,0.9,0,1.2,0c0.3,0,0.6,0,0.8,0
			h0.7c0.4,0,0.8,0,1-0.1c0.2-0.1,0.4-0.2,0.5-0.4c0.1-0.2,0.2-0.5,0.2-0.8c0-0.3,0-0.6-0.1-0.8s-0.2-0.3-0.3-0.4
			c-0.2-0.1-0.4-0.2-0.6-0.2l-1.9-0.5c-0.7-0.2-1.1-0.5-1.4-0.9c-0.3-0.4-0.4-0.9-0.4-1.6c0-0.5,0.1-0.9,0.2-1.3
			c0.1-0.3,0.3-0.6,0.5-0.7c0.2-0.2,0.6-0.3,0.9-0.3C133.1,41.3,133.5,41.3,134.1,41.3L134.1,41.3z"/>
	</g>
	<g>
		<path class="st0" d="M41.3,8.3c-12.4,0-22.5,10.1-22.5,22.5s10.1,22.5,22.5,22.5s22.5-10.1,22.5-22.5S53.7,8.3,41.3,8.3z
			 M41.2,49.2c-0.4,0-0.8,0-1.1,0C40.4,49.2,40.8,49.2,41.2,49.2s0.8,0,1.1,0C41.9,49.2,41.5,49.2,41.2,49.2z M27.2,42.9
			c0.8,0.9,1.6,1.7,2.5,2.4C28.8,44.6,28,43.8,27.2,42.9z M29.8,45.3c0.6,0.5,1.2,0.9,1.9,1.3C31.1,46.3,30.4,45.8,29.8,45.3z
			 M31.8,46.7c0.3,0.2,0.6,0.3,0.9,0.5C32.4,47,32.1,46.9,31.8,46.7z M32.9,47.3c0.3,0.2,0.7,0.3,1,0.5
			C33.6,47.6,33.2,47.5,32.9,47.3z M33.9,47.8c0.4,0.2,0.7,0.3,1.1,0.4C34.6,48,34.3,47.9,33.9,47.8z M35.2,48.2
			c0.3,0.1,0.6,0.2,0.8,0.3C35.8,48.4,35.5,48.3,35.2,48.2z M36.3,48.6c0.3,0.1,0.7,0.2,1,0.2C37,48.8,36.7,48.7,36.3,48.6z
			 M37.4,48.9c0.4,0.1,0.7,0.1,1.1,0.2C38.2,49,37.8,48.9,37.4,48.9z M38.8,49.1c0.3,0,0.6,0.1,0.8,0.1
			C39.4,49.2,39.1,49.1,38.8,49.1z M42.6,49.2c0.3,0,0.5,0,0.8-0.1C43.2,49.1,42.9,49.2,42.6,49.2z M43.8,49.1
			c0.3,0,0.6-0.1,0.9-0.2C44.4,49,44.1,49,43.8,49.1z M44.8,48.9c0.4-0.1,0.7-0.2,1.1-0.2C45.6,48.7,45.2,48.8,44.8,48.9z
			 M46.2,48.5c0.3-0.1,0.5-0.2,0.8-0.2C46.7,48.4,46.4,48.5,46.2,48.5z M47.3,48.2c0.3-0.1,0.5-0.2,0.8-0.3
			C47.8,48,47.6,48.1,47.3,48.2z M48.3,47.8c0.3-0.1,0.7-0.3,1-0.4C48.9,47.5,48.6,47.7,48.3,47.8z M49.5,47.3
			c0.2-0.1,0.5-0.3,0.8-0.4C50,47,49.7,47.2,49.5,47.3z M50.5,46.7c0.2-0.1,0.5-0.3,0.7-0.4C51,46.4,50.7,46.6,50.5,46.7z
			 M51.4,46.2c0.3-0.2,0.6-0.4,0.9-0.6C52,45.8,51.7,46,51.4,46.2z M52.4,45.5c0.2-0.2,0.5-0.4,0.7-0.6
			C52.9,45.1,52.6,45.3,52.4,45.5z M53.3,44.7c0.2-0.2,0.4-0.4,0.6-0.6C53.7,44.3,53.5,44.5,53.3,44.7z M54.1,44
			c0.5-0.5,1-1,1.4-1.6C55.1,42.9,54.6,43.5,54.1,44z M55.7,42.2c0.2-0.2,0.3-0.4,0.5-0.7C56,41.7,55.9,42,55.7,42.2z M56.4,41.3
			c0.2-0.3,0.4-0.6,0.6-0.9C56.8,40.7,56.6,41,56.4,41.3z M45,34.7l-7.3-7.3L25.1,39.9c0.6,1,1.3,2,2.1,2.9
			c-2.8-3.2-4.5-7.5-4.5-12.1c0-10.2,8.3-18.5,18.5-18.5s18.5,8.3,18.5,18.5c0,3.5-1,6.8-2.7,9.6l-8.8-8.8L45,34.7"/>
		<path class="st1" d="M37.4,8.1c1.3-0.2,2.6-0.3,3.9-0.3c12.7,0,23,10.3,23,23c0,1.3-0.1,2.6-0.3,3.8c0.3,0.3,0.6,0.6,0.9,0.9
			c0.3-1.5,0.5-3.1,0.5-4.7c0-13.2-10.8-24-24-24c-1.6,0-3.2,0.2-4.8,0.5C36.8,7.5,37.1,7.8,37.4,8.1L37.4,8.1z"/>
		<path class="st1" d="M50.2,51.9c-2.8,1.2-5.8,1.8-8.9,1.8c-12.7,0-23-10.3-23-23c0-3.1,0.6-6.1,1.8-8.9c-0.2-0.2-0.5-0.5-0.8-0.8
			c-1.3,3-2,6.2-2,9.6c0,13.2,10.8,24,24,24c3.5,0,6.7-0.7,9.7-2.1C50.7,52.4,50.5,52.2,50.2,51.9L50.2,51.9z"/>
	</g>
</g>
</svg>
