<?xml version="1.0" encoding="utf-8"?>
<!-- Generator: Adobe Illustrator 26.2.1, SVG Export Plug-In . SVG Version: 6.00 Build 0)  -->
<svg version="1.1" id="a" xmlns="http://www.w3.org/2000/svg" xmlns:xlink="http://www.w3.org/1999/xlink" x="0px" y="0px"
	 viewBox="0 0 167.1 61.5" style="enable-background:new 0 0 167.1 61.5;" xml:space="preserve">
<style type="text/css">
	.st0{fill:#FFFFFF;}
	.st1{fill:#2DB5FF;}
</style>
<g>
	<path class="st0" d="M64.3,3.3c1,0,1.8,0.1,2.3,0.3c0.6,0.2,1,0.6,1.3,1.1s0.4,1.2,0.4,2.1c0,0.7-0.1,1.2-0.2,1.6
		c-0.1,0.4-0.4,0.8-0.7,1C67,9.8,66.6,9.9,66.1,10v0.1c0.2,0,0.4,0.1,0.6,0.3c0.2,0.1,0.4,0.3,0.6,0.6c0.2,0.2,0.3,0.5,0.4,0.9
		l1.1,3.8h-1.9l-1.1-3.8c-0.1-0.4-0.3-0.8-0.6-1c-0.2-0.2-0.6-0.3-1-0.3c-0.7,0-1.4,0-1.9,0c-0.5,0-1,0-1.3,0c-0.4,0-0.7,0-0.9,0
		l0.1-1.4h4c0.6,0,1-0.1,1.4-0.2c0.3-0.1,0.6-0.3,0.7-0.7C66.5,8,66.5,7.6,66.5,7s-0.1-1-0.2-1.3c-0.1-0.3-0.4-0.5-0.7-0.7
		c-0.3-0.1-0.8-0.2-1.4-0.2c-1,0-1.8,0-2.6,0c-0.7,0-1.2,0-1.5,0L60,3.5c0.4,0,0.9-0.1,1.3-0.1c0.4,0,0.8,0,1.3,0
		C63.1,3.3,63.6,3.3,64.3,3.3L64.3,3.3z M61.7,3.5v12.2H60V3.5L61.7,3.5L61.7,3.5z"/>
	<path class="st0" d="M73.3,3.5h1.8c0.6,0,1.2,0,1.8,0c0.6,0,1.2,0,1.7,0.1l-0.1,1.4h-4.8c-0.4,0-0.6,0.1-0.8,0.3
		c-0.2,0.2-0.2,0.5-0.2,0.8v7.1c0,0.4,0.1,0.7,0.2,0.9c0.2,0.2,0.4,0.3,0.8,0.3h4.8l0.1,1.3c-0.5,0-1.1,0.1-1.7,0.1
		c-0.6,0-1.2,0-1.8,0s-1.2,0-1.8,0c-0.7,0-1.3-0.2-1.7-0.6c-0.4-0.4-0.7-0.9-0.7-1.6V5.6c0-0.7,0.2-1.2,0.7-1.6
		C72,3.7,72.5,3.5,73.3,3.5z M71.2,8.6h6.6v1.4h-6.6V8.6z"/>
	<path class="st0" d="M90,3.5l-3.6,11.7c-0.1,0.1-0.1,0.2-0.2,0.3c-0.1,0.1-0.3,0.1-0.4,0.1H84c-0.2,0-0.3-0.1-0.4-0.1
		c-0.1-0.1-0.2-0.2-0.2-0.3L79.7,3.5h1.8l2.8,9.5c0.1,0.2,0.1,0.4,0.2,0.7s0.1,0.4,0.2,0.7h0.5c0.1-0.2,0.1-0.4,0.2-0.7
		c0.1-0.2,0.1-0.4,0.2-0.7l2.7-9.5L90,3.5L90,3.5z"/>
	<path class="st0" d="M96.1,3.3c0.9,0,1.7,0.1,2.3,0.3c0.6,0.2,1.1,0.6,1.5,1s0.7,1.1,0.8,1.9c0.2,0.8,0.3,1.8,0.3,3s-0.1,2.2-0.3,3
		c-0.2,0.8-0.4,1.5-0.8,2c-0.4,0.5-0.9,0.8-1.5,1c-0.6,0.2-1.4,0.3-2.3,0.3s-1.7-0.1-2.3-0.3c-0.6-0.2-1.1-0.6-1.5-1
		c-0.4-0.5-0.7-1.1-0.8-2c-0.2-0.8-0.3-1.8-0.3-3s0.1-2.2,0.3-3c0.2-0.8,0.5-1.5,0.8-1.9c0.4-0.5,0.9-0.8,1.5-1
		C94.5,3.3,95.2,3.3,96.1,3.3z M96.1,4.8c-0.8,0-1.4,0.1-1.8,0.4c-0.4,0.3-0.8,0.8-1,1.5c-0.2,0.7-0.3,1.6-0.3,2.9s0.1,2.2,0.3,2.9
		c0.2,0.7,0.5,1.2,1,1.5c0.4,0.3,1.1,0.4,1.8,0.4c0.8,0,1.4-0.1,1.8-0.4c0.4-0.3,0.8-0.8,1-1.5c0.2-0.7,0.3-1.6,0.3-2.9
		s-0.1-2.2-0.3-2.9c-0.2-0.7-0.5-1.2-1-1.5C97.5,4.9,96.9,4.8,96.1,4.8z"/>
	<path class="st0" d="M105.2,3.5v9.6c0,0.4,0.1,0.7,0.3,0.8c0.2,0.2,0.5,0.3,0.9,0.3h4.4l0.1,1.4c-0.8,0.1-1.6,0.1-2.4,0.1
		c-0.8,0-1.6,0-2.4,0c-0.9,0-1.5-0.2-1.9-0.7c-0.4-0.4-0.6-1-0.6-1.7V3.5H105.2z"/>
	<path class="st0" d="M121.3,3.5V11c0,1.2-0.1,2.1-0.4,2.9s-0.8,1.2-1.4,1.6s-1.5,0.5-2.6,0.5c-1.1,0-2-0.2-2.7-0.5
		s-1.2-0.8-1.5-1.6c-0.3-0.7-0.4-1.7-0.4-2.9V3.5h1.8V11c0,0.8,0.1,1.5,0.3,2c0.2,0.5,0.5,0.9,0.9,1.1c0.4,0.2,1,0.3,1.6,0.3
		c0.7,0,1.2-0.1,1.6-0.3c0.4-0.2,0.7-0.6,0.9-1.1c0.2-0.5,0.3-1.2,0.3-2V3.5H121.3L121.3,3.5z"/>
	<path class="st0" d="M132.6,3.5V5h-9.5V3.5C123.1,3.5,132.6,3.5,132.6,3.5z M128.8,3.5v12.2H127V3.5H128.8z"/>
	<path class="st0" d="M136.3,3.5v12.2h-1.8V3.5H136.3z"/>
	<path class="st0" d="M143.7,3.3c0.9,0,1.7,0.1,2.3,0.3c0.6,0.2,1.1,0.6,1.5,1c0.4,0.5,0.7,1.1,0.8,1.9c0.2,0.8,0.3,1.8,0.3,3
		s-0.1,2.2-0.3,3c-0.2,0.8-0.4,1.5-0.8,2c-0.4,0.5-0.9,0.8-1.5,1c-0.6,0.2-1.4,0.3-2.3,0.3s-1.7-0.1-2.3-0.3c-0.6-0.2-1.1-0.6-1.5-1
		c-0.4-0.5-0.7-1.1-0.8-2c-0.2-0.8-0.3-1.8-0.3-3s0.1-2.2,0.3-3s0.5-1.5,0.8-1.9c0.4-0.5,0.9-0.8,1.5-1C142,3.3,142.8,3.3,143.7,3.3
		z M143.7,4.8c-0.8,0-1.4,0.1-1.8,0.4c-0.4,0.3-0.8,0.8-1,1.5c-0.2,0.7-0.3,1.6-0.3,2.9s0.1,2.2,0.3,2.9c0.2,0.7,0.5,1.2,1,1.5
		c0.4,0.3,1.1,0.4,1.8,0.4s1.4-0.1,1.8-0.4c0.4-0.3,0.8-0.8,1-1.5c0.2-0.7,0.3-1.6,0.3-2.9s-0.1-2.2-0.3-2.9c-0.2-0.7-0.5-1.2-1-1.5
		C145.1,4.9,144.5,4.8,143.7,4.8z"/>
	<path class="st0" d="M160.7,3.5V15c0,0.5-0.2,0.7-0.7,0.7h-1.5c-0.2,0-0.4,0-0.5-0.1c-0.1-0.1-0.2-0.2-0.3-0.4l-4-8.2
		c-0.1-0.2-0.2-0.5-0.4-0.8c-0.1-0.3-0.2-0.6-0.3-0.8h-0.3c0,0.3,0,0.5,0.1,0.8c0,0.3,0,0.6,0,0.8v8.8h-1.7V4.2
		c0-0.5,0.2-0.7,0.7-0.7h1.5c0.2,0,0.4,0.1,0.5,0.1c0.1,0.1,0.2,0.2,0.3,0.4l3.8,8c0.1,0.2,0.3,0.5,0.4,0.8c0.1,0.3,0.3,0.6,0.4,0.9
		h0.3c0-0.3,0-0.6-0.1-1c0-0.3,0-0.6,0-0.9V3.5H160.7L160.7,3.5z"/>
	<path class="st0" d="M68.4,24.7v1.5h-9.5v-1.5C58.9,24.7,68.4,24.7,68.4,24.7z M64.5,24.7v12.2h-1.8V24.7H64.5z"/>
	<path class="st0" d="M72.6,24.7h1.8c0.6,0,1.2,0,1.8,0c0.6,0,1.2,0,1.7,0.1l-0.1,1.4H73c-0.4,0-0.6,0.1-0.8,0.3
		c-0.2,0.2-0.2,0.5-0.2,0.8v7.1c0,0.4,0.1,0.7,0.2,0.9c0.2,0.2,0.4,0.3,0.8,0.3h4.8l0.1,1.3c-0.5,0-1.1,0.1-1.7,0.1
		c-0.6,0-1.2,0-1.8,0c-0.6,0-1.2,0-1.8,0c-0.7,0-1.3-0.2-1.7-0.6c-0.4-0.4-0.7-0.9-0.7-1.6v-7.9c0-0.7,0.2-1.2,0.7-1.6
		C71.3,24.8,71.9,24.6,72.6,24.7L72.6,24.7z M70.5,29.8h6.6v1.4h-6.6V29.8z"/>
	<path class="st0" d="M84.5,24.5c0.5,0,1,0,1.4,0c0.4,0,0.7,0.1,1,0.1c0.3,0.1,0.7,0.1,1,0.2l-0.2,1.3c-0.4,0-0.7-0.1-1-0.1
		c-0.3,0-0.6,0-1,0c-0.3,0-0.8,0-1.2,0c-0.7,0-1.3,0.1-1.8,0.4c-0.4,0.3-0.7,0.8-0.9,1.5c-0.2,0.7-0.3,1.6-0.3,2.8s0.1,2.1,0.3,2.8
		c0.2,0.7,0.5,1.2,0.9,1.5c0.4,0.3,1,0.4,1.8,0.4c0.7,0,1.4,0,1.9,0s1-0.1,1.5-0.1l0.2,1.3c-0.5,0.1-1,0.3-1.6,0.3
		c-0.5,0.1-1.2,0.1-2,0.1c-1.2,0-2.1-0.2-2.8-0.6s-1.2-1.1-1.5-2c-0.3-0.9-0.5-2.2-0.5-3.7c0-1.5,0.2-2.8,0.5-3.7
		c0.3-0.9,0.8-1.6,1.5-2C82.4,24.7,83.3,24.5,84.5,24.5L84.5,24.5z"/>
	<path class="st0" d="M92,24.7v12.2h-1.8V24.7H92z M97.6,29.6v1.5h-5.7v-1.5H97.6z M99.2,24.7v12.2h-1.8V24.7H99.2z"/>
	<path class="st0" d="M111.7,24.7v11.5c0,0.5-0.2,0.7-0.7,0.7h-1.5c-0.2,0-0.4-0.1-0.5-0.1c-0.1-0.1-0.2-0.2-0.3-0.4l-4-8.2
		c-0.1-0.2-0.2-0.5-0.4-0.8c-0.1-0.3-0.2-0.6-0.3-0.8h-0.3c0,0.3,0,0.5,0.1,0.8c0,0.3,0,0.6,0,0.8v8.8h-1.7V25.4
		c0-0.5,0.2-0.7,0.7-0.7h1.5c0.2,0,0.4,0.1,0.5,0.1c0.1,0.1,0.2,0.2,0.3,0.4l3.8,8c0.1,0.2,0.3,0.5,0.4,0.8s0.3,0.6,0.4,0.9h0.3
		c0-0.3,0-0.6-0.1-1c0-0.3,0-0.6,0-0.9v-8.5L111.7,24.7L111.7,24.7z"/>
	<path class="st0" d="M119.1,24.4c0.9,0,1.7,0.1,2.3,0.3c0.6,0.2,1.1,0.6,1.5,1s0.7,1.1,0.8,1.9c0.2,0.8,0.3,1.8,0.3,3
		s-0.1,2.2-0.3,3c-0.2,0.8-0.4,1.5-0.8,2s-0.9,0.8-1.5,1c-0.6,0.2-1.4,0.3-2.3,0.3c-0.9,0-1.7-0.1-2.3-0.3s-1.1-0.6-1.5-1
		c-0.4-0.5-0.7-1.1-0.8-2s-0.3-1.8-0.3-3s0.1-2.2,0.3-3s0.5-1.5,0.8-1.9c0.4-0.5,0.9-0.8,1.5-1C117.4,24.5,118.2,24.4,119.1,24.4z
		 M119.1,26c-0.8,0-1.4,0.1-1.8,0.4c-0.4,0.3-0.8,0.8-1,1.5c-0.2,0.7-0.3,1.6-0.3,2.9s0.1,2.2,0.3,2.9c0.2,0.7,0.5,1.2,1,1.5
		c0.4,0.3,1.1,0.4,1.8,0.4c0.8,0,1.4-0.1,1.8-0.4c0.4-0.3,0.8-0.8,1-1.5c0.2-0.7,0.3-1.6,0.3-2.9s-0.1-2.2-0.3-2.9
		c-0.2-0.7-0.5-1.2-1-1.5C120.4,26.1,119.8,26,119.1,26z"/>
	<path class="st0" d="M128.2,24.7v9.6c0,0.4,0.1,0.7,0.3,0.8c0.2,0.2,0.5,0.3,0.9,0.3h4.4l0.1,1.4c-0.8,0.1-1.6,0.1-2.4,0.1
		c-0.8,0-1.6,0-2.4,0c-0.9,0-1.5-0.2-1.9-0.7c-0.4-0.4-0.6-1-0.6-1.7v-9.9L128.2,24.7L128.2,24.7z"/>
	<path class="st0" d="M139.8,24.4c0.9,0,1.7,0.1,2.3,0.3c0.6,0.2,1.1,0.6,1.5,1s0.7,1.1,0.8,1.9c0.2,0.8,0.3,1.8,0.3,3
		s-0.1,2.2-0.3,3c-0.2,0.8-0.4,1.5-0.8,2s-0.9,0.8-1.5,1s-1.4,0.3-2.3,0.3s-1.7-0.1-2.3-0.3c-0.6-0.2-1.1-0.6-1.5-1
		c-0.4-0.5-0.7-1.1-0.8-2s-0.3-1.8-0.3-3s0.1-2.2,0.3-3s0.5-1.5,0.8-1.9c0.4-0.5,0.9-0.8,1.5-1C138.1,24.5,138.9,24.4,139.8,24.4z
		 M139.8,26c-0.8,0-1.4,0.1-1.8,0.4c-0.4,0.3-0.8,0.8-1,1.5c-0.2,0.7-0.3,1.6-0.3,2.9s0.1,2.2,0.3,2.9c0.2,0.7,0.5,1.2,1,1.5
		c0.4,0.3,1.1,0.4,1.8,0.4c0.8,0,1.4-0.1,1.8-0.4c0.4-0.3,0.8-0.8,1-1.5c0.2-0.7,0.3-1.6,0.3-2.9s-0.1-2.2-0.3-2.9
		c-0.2-0.7-0.5-1.2-1-1.5C141.2,26.1,140.6,26,139.8,26z"/>
	<path class="st0" d="M151.9,24.4c0.4,0,0.9,0,1.2,0c0.4,0,0.8,0.1,1.1,0.1c0.4,0.1,0.7,0.1,1.1,0.2l-0.2,1.3
		c-0.4,0-0.7-0.1-1.1-0.1c-0.4,0-0.7,0-1.1,0s-0.7,0-1,0c-0.6,0-1.2,0.1-1.6,0.2c-0.4,0.1-0.8,0.4-1,0.7c-0.3,0.3-0.4,0.8-0.6,1.5
		c-0.1,0.6-0.2,1.5-0.2,2.5c0,1.2,0.1,2.1,0.2,2.8s0.4,1.2,0.8,1.5s0.9,0.5,1.5,0.5c0.4,0,0.8-0.1,1.2-0.2c0.4-0.1,0.7-0.3,1-0.5
		c0.3-0.2,0.6-0.4,0.9-0.6l0.2,1c-0.2,0.2-0.5,0.5-0.9,0.8c-0.4,0.3-0.8,0.5-1.3,0.7c-0.5,0.2-1.1,0.3-1.7,0.3
		c-0.9,0-1.6-0.2-2.2-0.7c-0.6-0.4-1-1.1-1.2-2.1c-0.3-0.9-0.4-2.1-0.4-3.6c0-1.6,0.2-2.9,0.5-3.8c0.3-0.9,0.9-1.6,1.6-1.9
		C149.6,24.6,150.7,24.4,151.9,24.4L151.9,24.4z M155.7,29.8v7h-1.3l-0.3-1.8l-0.2-0.4v-4.8H155.7L155.7,29.8z"/>
	<path class="st0" d="M166.8,24.7l-4.1,8.1h-1.6l-4.1-8.1h1.9l2.5,5c0.1,0.2,0.2,0.5,0.3,0.7c0.1,0.2,0.2,0.5,0.2,0.7h0.1
		c0.1-0.2,0.2-0.5,0.3-0.7c0.1-0.2,0.2-0.5,0.3-0.7l2.5-5L166.8,24.7L166.8,24.7z M162.8,31.6v5.3H161v-5.3H162.8z"/>
	<path class="st0" d="M63.5,45.7c0.6,0,1.2,0,1.8,0.1c0.6,0,1.2,0.1,1.9,0.3l-0.1,1.2c-0.5,0-1.1,0-1.7-0.1c-0.6,0-1.2,0-1.8,0
		c-0.4,0-0.8,0-1.1,0c-0.3,0-0.5,0.1-0.7,0.2c-0.2,0.1-0.3,0.3-0.4,0.5c-0.1,0.2-0.1,0.6-0.1,1c0,0.6,0.1,1.1,0.4,1.3
		c0.2,0.3,0.6,0.4,1.1,0.6l2.5,0.7c0.9,0.2,1.6,0.6,1.9,1.2c0.4,0.6,0.5,1.3,0.5,2.3c0,0.7-0.1,1.3-0.2,1.7c-0.2,0.4-0.4,0.8-0.7,1
		s-0.8,0.4-1.3,0.5s-1.2,0.1-1.9,0.1c-0.4,0-0.9,0-1.6-0.1c-0.7,0-1.4-0.1-2.3-0.3l0.1-1.3c0.7,0,1.3,0,1.7,0.1c0.4,0,0.8,0,1.1,0h1
		c0.6,0,1.1,0,1.4-0.1c0.3-0.1,0.6-0.3,0.7-0.5c0.1-0.3,0.2-0.7,0.2-1.2c0-0.4-0.1-0.8-0.1-1c-0.1-0.2-0.3-0.4-0.5-0.6
		c-0.2-0.1-0.5-0.2-0.8-0.3l-2.5-0.7c-0.9-0.2-1.5-0.6-1.9-1.2c-0.4-0.6-0.5-1.3-0.5-2.2c0-0.7,0.1-1.3,0.2-1.7
		c0.2-0.4,0.4-0.8,0.7-1s0.7-0.4,1.2-0.4S62.8,45.6,63.5,45.7L63.5,45.7z"/>
	<path class="st0" d="M74.4,45.6c0.9,0,1.7,0.1,2.3,0.3c0.6,0.2,1.1,0.6,1.5,1c0.4,0.5,0.7,1.1,0.8,1.9c0.2,0.8,0.3,1.8,0.3,3
		s-0.1,2.2-0.3,3c-0.2,0.8-0.4,1.5-0.8,2s-0.9,0.8-1.5,1s-1.4,0.3-2.3,0.3c-0.9,0-1.7-0.1-2.3-0.3c-0.6-0.2-1.1-0.6-1.5-1
		c-0.4-0.5-0.7-1.1-0.8-2c-0.2-0.8-0.3-1.8-0.3-3s0.1-2.2,0.3-3c0.2-0.8,0.5-1.5,0.8-1.9c0.4-0.5,0.9-0.8,1.5-1
		C72.8,45.7,73.5,45.6,74.4,45.6z M74.4,47.2c-0.8,0-1.4,0.1-1.8,0.4c-0.4,0.3-0.8,0.8-1,1.5c-0.2,0.7-0.3,1.6-0.3,2.9
		s0.1,2.2,0.3,2.9c0.2,0.7,0.5,1.2,1,1.5c0.4,0.3,1.1,0.4,1.8,0.4c0.8,0,1.4-0.1,1.8-0.4c0.4-0.3,0.8-0.8,1-1.5
		c0.2-0.7,0.3-1.6,0.3-2.9s-0.1-2.2-0.3-2.9c-0.2-0.7-0.5-1.2-1-1.5C75.8,47.3,75.2,47.2,74.4,47.2z"/>
	<path class="st0" d="M83.5,45.9v9.6c0,0.4,0.1,0.7,0.3,0.8c0.2,0.2,0.5,0.3,0.9,0.3h4.4l0.1,1.4C88.4,58,87.6,58,86.7,58
		c-0.8,0-1.6,0-2.4,0c-0.9,0-1.5-0.2-1.9-0.7c-0.4-0.4-0.6-1-0.6-1.7v-9.9L83.5,45.9L83.5,45.9z"/>
	<path class="st0" d="M99.6,45.9v7.5c0,1.2-0.1,2.1-0.4,2.9s-0.8,1.2-1.4,1.6c-0.6,0.3-1.5,0.5-2.6,0.5c-1.1,0-2-0.2-2.7-0.5
		s-1.2-0.8-1.5-1.6c-0.3-0.7-0.4-1.7-0.4-2.9v-7.5h1.8v7.5c0,0.8,0.1,1.5,0.3,2c0.2,0.5,0.5,0.9,0.9,1.1c0.4,0.2,1,0.3,1.6,0.3
		c0.7,0,1.2-0.1,1.6-0.3c0.4-0.2,0.7-0.6,0.9-1.1c0.2-0.5,0.3-1.2,0.3-2v-7.5H99.6L99.6,45.9z"/>
	<path class="st0" d="M110.9,45.9v1.5h-9.5v-1.5H110.9z M107.1,45.9V58h-1.8V45.9H107.1z"/>
	<path class="st0" d="M114.6,45.9V58h-1.8V45.9H114.6z"/>
	<path class="st0" d="M122,45.6c0.9,0,1.7,0.1,2.3,0.3c0.6,0.2,1.1,0.6,1.5,1c0.4,0.5,0.7,1.1,0.8,1.9c0.2,0.8,0.3,1.8,0.3,3
		s-0.1,2.2-0.3,3c-0.2,0.8-0.4,1.5-0.8,2s-0.9,0.8-1.5,1s-1.4,0.3-2.3,0.3c-0.9,0-1.7-0.1-2.3-0.3c-0.6-0.2-1.1-0.6-1.5-1
		c-0.4-0.5-0.7-1.1-0.8-2c-0.2-0.8-0.3-1.8-0.3-3s0.1-2.2,0.3-3c0.2-0.8,0.5-1.5,0.8-1.9c0.4-0.5,0.9-0.8,1.5-1
		C120.4,45.7,121.1,45.6,122,45.6z M122,47.2c-0.8,0-1.4,0.1-1.8,0.4c-0.4,0.3-0.8,0.8-1,1.5c-0.2,0.7-0.3,1.6-0.3,2.9
		s0.1,2.2,0.3,2.9c0.2,0.7,0.5,1.2,1,1.5c0.4,0.3,1.1,0.4,1.8,0.4c0.8,0,1.4-0.1,1.8-0.4c0.4-0.3,0.8-0.8,1-1.5
		c0.2-0.7,0.3-1.6,0.3-2.9s-0.1-2.2-0.3-2.9c-0.2-0.7-0.5-1.2-1-1.5C123.4,47.3,122.8,47.2,122,47.2z"/>
	<path class="st0" d="M139,45.9v11.5c0,0.5-0.2,0.7-0.7,0.7h-1.5c-0.2,0-0.4,0-0.5-0.1c-0.1-0.1-0.2-0.2-0.3-0.4l-4-8.2
		c-0.1-0.2-0.2-0.5-0.4-0.8c-0.1-0.3-0.2-0.6-0.3-0.8h-0.3c0,0.3,0,0.5,0.1,0.8c0,0.3,0,0.6,0,0.8V58h-1.7V46.5
		c0-0.5,0.2-0.7,0.7-0.7h1.5c0.2,0,0.4,0.1,0.5,0.1c0.1,0.1,0.2,0.2,0.3,0.4l3.8,8c0.1,0.2,0.3,0.5,0.4,0.8c0.1,0.3,0.3,0.6,0.4,0.9
		h0.3c0-0.3,0-0.6-0.1-1c0-0.3,0-0.6,0-0.9v-8.5L139,45.9L139,45.9z"/>
	<path class="st0" d="M145.4,45.7c0.6,0,1.2,0,1.8,0.1c0.6,0,1.2,0.1,1.9,0.3l-0.1,1.2c-0.5,0-1.1,0-1.7-0.1c-0.6,0-1.2,0-1.8,0
		c-0.4,0-0.8,0-1.1,0c-0.3,0-0.5,0.1-0.7,0.2c-0.2,0.1-0.3,0.3-0.4,0.5c-0.1,0.2-0.1,0.6-0.1,1c0,0.6,0.1,1.1,0.4,1.3
		c0.2,0.3,0.6,0.4,1.1,0.6l2.5,0.7c0.9,0.2,1.6,0.6,1.9,1.2c0.4,0.6,0.5,1.3,0.5,2.3c0,0.7-0.1,1.3-0.2,1.7c-0.2,0.4-0.4,0.8-0.7,1
		c-0.3,0.2-0.8,0.4-1.3,0.5s-1.2,0.1-1.9,0.1c-0.4,0-0.9,0-1.6-0.1c-0.7,0-1.4-0.1-2.3-0.3l0.1-1.3c0.7,0,1.3,0,1.7,0.1
		c0.4,0,0.8,0,1.1,0h1c0.6,0,1.1,0,1.4-0.1c0.3-0.1,0.6-0.3,0.7-0.5c0.1-0.3,0.2-0.7,0.2-1.2c0-0.4-0.1-0.8-0.1-1
		c-0.1-0.2-0.3-0.4-0.5-0.6c-0.2-0.1-0.5-0.2-0.8-0.3l-2.5-0.7c-0.9-0.2-1.5-0.6-1.9-1.2c-0.4-0.6-0.5-1.3-0.5-2.2
		c0-0.7,0.1-1.3,0.2-1.7c0.2-0.4,0.4-0.8,0.7-1s0.7-0.4,1.2-0.4S144.7,45.6,145.4,45.7L145.4,45.7z"/>
</g>
<path class="st1" d="M29.1,4.8C14.7,4.8,3,16.4,3,30.9S14.7,57,29.1,57s26.1-11.7,26.1-26.1S43.5,4.8,29.1,4.8z M29,52.3
	c-0.5,0-0.9,0-1.3,0C28.1,52.3,28.6,52.3,29,52.3c0.5,0,0.9,0,1.3,0C29.9,52.3,29.4,52.3,29,52.3z M12.8,44.9c0.9,1,1.9,2,3,2.8
	C14.7,46.9,13.7,46,12.8,44.9z M15.8,47.8c0.7,0.5,1.4,1.1,2.2,1.5C17.3,48.9,16.5,48.4,15.8,47.8z M18.2,49.4
	c0.3,0.2,0.7,0.4,1,0.6C18.8,49.8,18.5,49.6,18.2,49.4z M19.4,50.1c0.4,0.2,0.8,0.4,1.2,0.5C20.2,50.4,19.8,50.3,19.4,50.1z
	 M20.6,50.6c0.4,0.2,0.8,0.3,1.2,0.5C21.4,50.9,21,50.8,20.6,50.6z M22.1,51.2c0.3,0.1,0.7,0.2,1,0.3C22.7,51.4,22.4,51.3,22.1,51.2
	z M23.4,51.6c0.4,0.1,0.8,0.2,1.2,0.3C24.2,51.8,23.8,51.7,23.4,51.6z M24.7,51.9c0.4,0.1,0.9,0.2,1.3,0.2
	C25.5,52,25.1,52,24.7,51.9z M26.3,52.2c0.3,0,0.7,0.1,1,0.1C27,52.2,26.6,52.2,26.3,52.2z M30.7,52.3c0.3,0,0.6-0.1,0.9-0.1
	C31.3,52.2,31,52.2,30.7,52.3z M32,52.1c0.4,0,0.7-0.1,1.1-0.2C32.8,52,32.4,52.1,32,52.1z M33.3,51.9c0.4-0.1,0.8-0.2,1.2-0.3
	C34.1,51.7,33.7,51.8,33.3,51.9z M34.8,51.5c0.3-0.1,0.6-0.2,0.9-0.3C35.4,51.3,35.1,51.4,34.8,51.5z M36.1,51.1
	c0.3-0.1,0.6-0.2,0.9-0.3C36.7,50.9,36.4,51,36.1,51.1z M37.3,50.7c0.4-0.2,0.8-0.3,1.1-0.5C38.1,50.4,37.7,50.5,37.3,50.7z
	 M38.7,50.1c0.3-0.2,0.6-0.3,0.9-0.5C39.2,49.8,38.9,49.9,38.7,50.1z M39.8,49.4c0.3-0.2,0.6-0.3,0.8-0.5
	C40.4,49.1,40.1,49.3,39.8,49.4z M40.9,48.8c0.3-0.2,0.7-0.5,1-0.7C41.6,48.3,41.2,48.5,40.9,48.8z M42,48c0.3-0.2,0.6-0.5,0.8-0.7
	C42.6,47.5,42.3,47.7,42,48z M43.1,47.1c0.2-0.2,0.5-0.4,0.7-0.7C43.6,46.6,43.4,46.8,43.1,47.1z M44.1,46.2
	c0.6-0.6,1.2-1.2,1.7-1.8C45.2,45,44.6,45.6,44.1,46.2z M45.9,44.1c0.2-0.3,0.4-0.5,0.6-0.8C46.3,43.6,46.1,43.9,45.9,44.1z
	 M46.7,43.1c0.2-0.3,0.5-0.7,0.7-1C47.1,42.4,46.9,42.7,46.7,43.1z M33.5,35.4L25,26.9L10.4,41.5c0.7,1.2,1.5,2.3,2.4,3.4
	c-3.3-3.8-5.2-8.7-5.2-14C7.5,19,17.1,9.4,29,9.4S50.5,19,50.5,30.9c0,4.1-1.2,7.9-3.1,11.2L37.1,31.8L33.5,35.4"/>
<path class="st0" d="M22.8,3.3c2.1-0.5,4.2-0.7,6.4-0.7c15.6,0,28.2,12.7,28.2,28.2c0,2.2-0.3,4.3-0.7,6.4l0.8,0.8
	c0.6-2.3,0.9-4.7,0.9-7.2c0-16.1-13.1-29.2-29.2-29.2c-2.6,0-5,0.3-7.4,1C22.1,2.7,22.5,3,22.8,3.3z"/>
<path class="st0" d="M35,58.3c-1.9,0.4-3.8,0.6-5.8,0.6C13.7,59,1,46.3,1,30.8c0-2,0.2-4,0.6-5.9c-0.3-0.4-0.5-0.8-0.7-1.2
	C0.3,25.9,0,28.3,0,30.8C0,46.9,13.1,60,29.2,60c2.3,0,4.5-0.3,6.7-0.8C35.6,58.9,35.3,58.6,35,58.3z"/>
</svg>
