<?xml version="1.0" encoding="utf-8"?>
<!-- Generator: Adobe Illustrator 23.0.1, SVG Export Plug-In . SVG Version: 6.00 Build 0)  -->
<svg version="1.1" xmlns="http://www.w3.org/2000/svg" xmlns:xlink="http://www.w3.org/1999/xlink" x="0px" y="0px"
	 viewBox="0 0 244 80" style="enable-background:new 0 0 244 80;" xml:space="preserve">
<style type="text/css">
	.st0{fill:#2DB5FF;}
	.st1{fill:none;}
	.st2{fill:#FFFFFF;stroke:#FFFFFF;stroke-width:0.6;stroke-miterlimit:10;}
</style>
<g id="Layer_4">
	<path class="st0" d="M43,5.2625122c-19.0847168,0-34.5559692,15.4712524-34.5559692,34.5560303
		c0,19.0847168,15.4712524,34.5559692,34.5559692,34.5559692s34.5559692-15.4712524,34.5559692-34.5559692
		C77.5559692,20.7337646,62.0847168,5.2625122,43,5.2625122z M42.8605957,68.2350464
		c-0.5936279,0-1.1813965-0.0241699-1.7659912-0.0600586C41.6791382,68.2108765,42.2669678,68.2350464,42.8605957,68.2350464
		c0.5805664,0,1.1557007-0.0228271,1.7276611-0.0571899C44.0162354,68.2122192,43.4412231,68.2350464,42.8605957,68.2350464z
		 M21.4029541,58.4366455c1.1790771,1.3585205,2.486145,2.602478,3.9001465,3.7166138
		C23.8881836,61.0394897,22.5826416,59.7950439,21.4029541,58.4366455z M25.4364014,62.2579956
		c0.9319458,0.7254028,1.909729,1.3945923,2.9292603,2.0011597C27.3456421,63.6528931,26.3688354,62.9830933,25.4364014,62.2579956z
		 M28.5129395,64.343811c0.4451904,0.2612915,0.8988647,0.5093384,1.3591309,0.746582
		C29.4116211,64.8532715,28.958313,64.6049194,28.5129395,64.343811z M30.1574097,65.2365112
		c0.5089722,0.255188,1.0245972,0.4990845,1.5504761,0.723999C31.1818848,65.7357788,30.6665649,65.4914551,30.1574097,65.2365112z
		 M31.7111206,65.9619751c0.5336914,0.2281494,1.0774536,0.4370117,1.6273804,0.6328125
		C32.7884521,66.3991699,32.2449951,66.1900024,31.7111206,65.9619751z M33.6826172,66.7112427
		c0.432373,0.1477051,0.8695679,0.284729,1.3110352,0.4118652C34.552063,66.9960938,34.1151123,66.8588257,33.6826172,66.7112427z
		 M35.4223633,67.244873c0.5279541,0.1429443,1.0606689,0.2744141,1.6003418,0.387207
		C36.4829102,67.5193481,35.9503784,67.3877563,35.4223633,67.244873z M37.0963745,67.6491089
		c0.5622559,0.1159058,1.132019,0.2105713,1.7059326,0.2927246C38.2283936,67.8597412,37.6586914,67.7649536,37.0963745,67.6491089z
		 M39.2773438,68.0021973c0.4329224,0.0545654,0.8688354,0.0992432,1.3076172,0.1340332
		C40.1461182,68.1014404,39.7103271,68.0567017,39.2773438,68.0021973z M45.1049194,68.1386108
		c0.4130249-0.0323486,0.8236084-0.072937,1.2314453-0.1227417C45.9284668,68.0656738,45.5179443,68.1063232,45.1049194,68.1386108z
		 M46.8632202,67.9489136c0.4794312-0.067627,0.9550171-0.1467285,1.4263916-0.2379761
		C47.8181763,67.8021851,47.3426514,67.8812866,46.8632202,67.9489136z M48.5289307,67.6681519
		c0.5480347-0.1109619,1.0893555-0.2402954,1.6253662-0.3822632C49.6181641,67.4279175,49.0769653,67.5571899,48.5289307,67.6681519
		z M50.5852661,67.1635132c0.4000854-0.112854,0.796814-0.2332764,1.1895142-0.3629761
		C51.3820801,66.9302368,50.9854126,67.0506592,50.5852661,67.1635132z M52.2588501,66.6367188
		c0.4176025-0.1463623,0.8305664-0.3026123,1.2390137-0.4677124C53.0893555,66.3340454,52.6765137,66.4903564,52.2588501,66.6367188
		z M53.8068237,66.0471802c0.5081787-0.2123413,1.008667-0.439209,1.5012817-0.6797485
		C54.8153687,65.6079102,54.3150024,65.8348389,53.8068237,66.0471802z M55.6160889,65.2096558
		c0.3903809-0.1965332,0.7759399-0.401123,1.1558228-0.6149292C56.3920288,64.8084717,56.0065308,65.0130615,55.6160889,65.2096558z
		 M57.1867065,64.3562012c0.3684692-0.2156372,0.7314453-0.4396973,1.0891113-0.6712036
		C57.9180298,63.9165649,57.5552368,64.1405029,57.1867065,64.3562012z M58.588562,63.4844971
		c0.4581299-0.3051758,0.9080811-0.621582,1.3469849-0.9520874C59.496582,62.862915,59.0467529,63.1793213,58.588562,63.4844971z
		 M60.0826416,62.4168091c0.3840942-0.2932129,0.7598267-0.5966797,1.1281738-0.9086914
		C60.8424072,61.8201294,60.4667969,62.1235962,60.0826416,62.4168091z M61.5412598,61.2219238
		c0.3214722-0.2808838,0.6364136-0.5689087,0.9449463-0.8637695C62.1776123,60.6530151,61.862793,60.940979,61.5412598,61.2219238z
		 M62.7643433,60.0929565c0.7836304-0.7694702,1.5223389-1.5841675,2.2129517-2.4395752
		C64.2865601,58.5088501,63.5480957,59.3234253,62.7643433,60.0929565z M65.2210693,57.3432007
		c0.2664185-0.3394165,0.5251465-0.6849976,0.7761841-1.0366211C65.7462158,56.6582642,65.4874878,57.0037231,65.2210693,57.3432007
		z M66.2311401,55.9777222c0.3098145-0.4472046,0.6107178-0.901123,0.8950195-1.3665161
		C66.8417969,55.0765991,66.5409546,55.5304565,66.2311401,55.9777222z M67.12677,54.6102905L53.5310059,41.0145264
		l-4.8088379,4.8088379l-11.2084351-11.208374L18.1992188,53.9295044c0.9155273,1.5965576,1.9818726,3.095459,3.1787109,4.4782104
		c-4.3162231-4.9836426-6.9338989-11.4786987-6.9338989-18.5891724c0-15.6940308,12.7225342-28.4165649,28.4165649-28.4165649
		c15.6939697,0,28.4165039,12.7225342,28.4165039,28.4165649C71.2770996,45.2374878,69.7590332,50.3012695,67.12677,54.6102905z"/>
</g>
<g id="Layer_2">
	<g>
		<rect x="79.4842224" y="7.7950392" class="st1" width="160.8738403" height="63.928566"/>
		<path class="st2" d="M86.0239258,8.3344727h5.7998047c1.1464844,0,2.0703125,0.3071289,2.7700195,0.9204102
			c0.7001953,0.6132812,1.050293,1.753418,1.050293,3.4199219c0,1.4267578-0.2670898,2.4331055-0.800293,3.0200195
			s-1.199707,0.9599609-2,1.1196289l3.0200195,6.2402344h-1.6201172l-2.8598633-6.0200195l-1.1000977-0.0200195l-2.659668-0.0600586
			v6.1000977h-1.6000977V8.3344727z M91.5839844,15.7348633c0.7866211,0,1.3964844-0.2133789,1.8300781-0.6401367
			c0.4331055-0.4267578,0.6499023-1.2333984,0.6499023-2.4199219c0-1.1201172-0.2202148-1.8833008-0.6601562-2.2900391
			s-1.046875-0.6098633-1.8198242-0.6098633h-3.9599609v5.9599609H91.5839844z"/>
		<path class="st2" d="M100.0537109,22.5449219c-0.5800781-0.3935547-0.8701172-1.1503906-0.8701172-2.2700195v-8.9799805
			c0-1.0400391,0.2797852-1.793457,0.8398438-2.2602539c0.5600586-0.4663086,1.246582-0.7001953,2.0600586-0.7001953
			c2.1333008,0.0400391,3.7929688,0.0869141,4.9799805,0.1401367l1.1801758,0.0400391v1.2802734h-5.7602539
			c-1.1333008,0-1.699707,0.5864258-1.699707,1.7597656v3.4799805l6.5800781,0.1000977v1.2197266l-6.5800781,0.1000977v3.4599609
			c0,0.6801758,0.159668,1.1401367,0.4799805,1.3803711c0.3198242,0.2397461,0.7529297,0.3598633,1.2998047,0.3598633h5.6801758
			v1.2797852c-2.5336914,0.1333008-4.5537109,0.2001953-6.0600586,0.2001953
			C101.34375,23.1347656,100.6337891,22.9379883,100.0537109,22.5449219z"/>
		<path class="st2" d="M111.0634766,8.3344727h1.6396484l4.4399414,13.0600586l4.4204102-13.0600586h1.6201172
			l-5.0405273,14.7202148h-2.0395508L111.0634766,8.3344727z"/>
		<path class="st2" d="M128.2539062,22.6245117c-0.7929688-0.3662109-1.3935547-1.0795898-1.7998047-2.1396484
			c-0.4072266-1.0600586-0.6103516-2.6367188-0.6103516-4.7299805c0-2.0800781,0.2099609-3.6630859,0.6298828-4.75
			c0.4208984-1.0869141,1.0302734-1.8232422,1.8300781-2.2099609c0.8007812-0.3867188,1.8730469-0.5800781,3.2207031-0.5800781
			c1.3857422,0,2.4794922,0.1899414,3.2792969,0.5698242c0.8007812,0.3798828,1.4003906,1.1132812,1.8007812,2.2001953
			c0.3994141,1.0869141,0.5996094,2.6767578,0.5996094,4.7700195s-0.203125,3.6699219-0.6103516,4.7299805
			c-0.40625,1.0600586-1.0068359,1.7734375-1.7998047,2.1396484c-0.7929688,0.3671875-1.8837891,0.550293-3.2695312,0.550293
			C130.1367188,23.1748047,129.046875,22.9916992,128.2539062,22.6245117z M133.9736328,21.3144531
			c0.5673828-0.2929688,0.9833984-0.8662109,1.25-1.7197266c0.2666016-0.8530273,0.4003906-2.1333008,0.4003906-3.8398438
			c0-1.7734375-0.1337891-3.0932617-0.4003906-3.9599609s-0.6826172-1.4433594-1.25-1.7304688
			c-0.5664062-0.2861328-1.3828125-0.4296875-2.4492188-0.4296875c-1.0136719,0-1.8076172,0.1435547-2.3798828,0.4296875
			c-0.5742188,0.2871094-1.0039062,0.8701172-1.2900391,1.75c-0.2871094,0.8803711-0.4306641,2.1938477-0.4306641,3.9404297
			c0,1.7197266,0.1269531,3.003418,0.3798828,3.8496094c0.2539062,0.847168,0.6630859,1.4169922,1.2304688,1.7099609
			c0.5664062,0.293457,1.3964844,0.4404297,2.4902344,0.4404297
			C132.5908203,21.7548828,133.4072266,21.6079102,133.9736328,21.3144531z"/>
		<path class="st2" d="M141.7041016,22.3847656c-0.5205078-0.4467773-0.7802734-1.2099609-0.7802734-2.2900391V8.3344727h1.5996094
			v11.5400391c0,0.6538086,0.1533203,1.1035156,0.4599609,1.3500977c0.3066406,0.2470703,0.7207031,0.3701172,1.2402344,0.3701172
			h5.2802734v1.4599609h-5.6201172C142.9501953,23.0546875,142.2236328,22.831543,141.7041016,22.3847656z"/>
		<path class="st2" d="M153.4433594,22.1347656c-0.9199219-0.6933594-1.3798828-1.9067383-1.3798828-3.6401367V8.3344727h1.6005859
			v10.1601562c0,1.2001953,0.3164062,2.0400391,0.9492188,2.5200195c0.6337891,0.4799805,1.5908203,0.7202148,2.8701172,0.7202148
			c1.2802734,0,2.2363281-0.2402344,2.8701172-0.7202148c0.6328125-0.4799805,0.9501953-1.3198242,0.9501953-2.5200195V8.3344727
			h1.5996094v10.1601562c0,1.7333984-0.4599609,2.9467773-1.3798828,3.6401367s-2.2666016,1.0400391-4.0400391,1.0400391
			S154.3632812,22.828125,153.4433594,22.1347656z"/>
		<path class="st2" d="M170.1230469,9.7749023h-4.5595703V8.3344727h10.6796875v1.4404297h-4.5400391v13.2797852h-1.5800781
			V9.7749023z"/>
		<path class="st2" d="M179.1035156,8.3344727h1.5996094v14.7202148h-1.5996094V8.3344727z"/>
		<path class="st2" d="M186.8330078,22.6245117c-0.7929688-0.3662109-1.3935547-1.0795898-1.7998047-2.1396484
			c-0.4072266-1.0600586-0.6103516-2.6367188-0.6103516-4.7299805c0-2.0800781,0.2099609-3.6630859,0.6298828-4.75
			c0.4208984-1.0869141,1.0302734-1.8232422,1.8300781-2.2099609c0.8007812-0.3867188,1.8730469-0.5800781,3.2207031-0.5800781
			c1.3857422,0,2.4794922,0.1899414,3.2792969,0.5698242c0.8007812,0.3798828,1.4003906,1.1132812,1.8007812,2.2001953
			c0.3994141,1.0869141,0.5996094,2.6767578,0.5996094,4.7700195s-0.203125,3.6699219-0.6103516,4.7299805
			c-0.40625,1.0600586-1.0068359,1.7734375-1.7998047,2.1396484c-0.7929688,0.3671875-1.8837891,0.550293-3.2695312,0.550293
			C188.7158203,23.1748047,187.6259766,22.9916992,186.8330078,22.6245117z M192.5527344,21.3144531
			c0.5673828-0.2929688,0.9833984-0.8662109,1.25-1.7197266c0.2666016-0.8530273,0.4003906-2.1333008,0.4003906-3.8398438
			c0-1.7734375-0.1337891-3.0932617-0.4003906-3.9599609s-0.6826172-1.4433594-1.25-1.7304688
			c-0.5664062-0.2861328-1.3828125-0.4296875-2.4492188-0.4296875c-1.0136719,0-1.8076172,0.1435547-2.3798828,0.4296875
			c-0.5742188,0.2871094-1.0039062,0.8701172-1.2900391,1.75c-0.2871094,0.8803711-0.4306641,2.1938477-0.4306641,3.9404297
			c0,1.7197266,0.1269531,3.003418,0.3798828,3.8496094c0.2539062,0.847168,0.6630859,1.4169922,1.2304688,1.7099609
			c0.5664062,0.293457,1.3964844,0.4404297,2.4902344,0.4404297
			C191.1699219,21.7548828,191.9863281,21.6079102,192.5527344,21.3144531z"/>
		<path class="st2" d="M199.7832031,8.3344727h1.2998047l7.6796875,11.9799805V8.3344727h1.5800781v14.7202148h-1.2998047
			l-7.6796875-11.9799805v11.9799805h-1.5800781V8.3344727z"/>
		<path class="st2" d="M89.3637695,33.7749023h-4.5600586v-1.4404297h10.6801758v1.4404297h-4.5400391v13.2797852h-1.5800781
			V33.7749023z"/>
		<path class="st2" d="M99.0141602,46.5449219c-0.5800781-0.3935547-0.8701172-1.1503906-0.8701172-2.2695312v-8.9804688
			c0-1.0400391,0.2797852-1.793457,0.8398438-2.2602539c0.5600586-0.4663086,1.246582-0.7001953,2.0600586-0.7001953
			c2.1333008,0.0400391,3.7929688,0.0869141,4.9799805,0.1401367l1.1801758,0.0400391v1.2802734h-5.7602539
			c-1.1333008,0-1.699707,0.5864258-1.699707,1.7597656v3.4799805l6.5800781,0.1000977v1.2197266l-6.5800781,0.1000977v3.4604492
			c0,0.6796875,0.159668,1.1396484,0.4799805,1.3798828c0.3198242,0.2402344,0.7529297,0.3603516,1.2998047,0.3603516h5.6801758
			v1.2792969c-2.5336914,0.1337891-4.5537109,0.2001953-6.0600586,0.2001953
			C100.3041992,47.1347656,99.5942383,46.9384766,99.0141602,46.5449219z"/>
		<path class="st2" d="M112.7036133,46.5849609c-0.7333984-0.3935547-1.2797852-1.1298828-1.6396484-2.2099609
			c-0.3603516-1.0800781-0.5400391-2.6533203-0.5400391-4.7202148c0-1.9599609,0.1865234-3.4765625,0.5600586-4.550293
			c0.3730469-1.0727539,0.9399414-1.8227539,1.699707-2.25c0.7602539-0.4262695,1.7729492-0.6396484,3.0400391-0.6396484
			c0.6132812,0,1.3164062,0.0498047,2.1098633,0.1499023s1.496582,0.2299805,2.1103516,0.3901367v1.1796875
			c-0.4672852-0.0664062-1.0668945-0.1328125-1.800293-0.199707s-1.4599609-0.1000977-2.1796875-0.1000977
			c-1,0-1.7802734,0.1635742-2.340332,0.4897461c-0.5600586,0.3271484-0.9697266,0.9204102-1.2299805,1.7802734
			c-0.2597656,0.8598633-0.3901367,2.1166992-0.3901367,3.7700195c0,1.7070312,0.1235352,2.9902344,0.3701172,3.8505859
			c0.246582,0.859375,0.6430664,1.4462891,1.1899414,1.7597656s1.3334961,0.4697266,2.3603516,0.4697266
			c1.6928711,0,3.0327148-0.0869141,4.0200195-0.2597656v1.2001953c-0.6137695,0.1464844-1.3037109,0.2626953-2.0703125,0.3496094
			s-1.5234375,0.1298828-2.2700195,0.1298828C114.4370117,47.1748047,113.4370117,46.9785156,112.7036133,46.5849609z"/>
		<path class="st2" d="M123.5039062,32.3344727h1.5996094v6.8203125h7.3613281v-6.8203125h1.5800781v14.7202148h-1.5800781
			V40.574707h-7.3613281v6.4799805h-1.5996094V32.3344727z"/>
		<path class="st2" d="M138.4238281,32.3344727h1.2998047l7.6796875,11.9799805V32.3344727h1.5800781v14.7202148h-1.2998047
			l-7.6796875-11.9799805v11.9799805h-1.5800781V32.3344727z"/>
		<path class="st2" d="M154.8535156,46.625c-0.7929688-0.3662109-1.3935547-1.0800781-1.7998047-2.1396484
			c-0.4072266-1.0605469-0.6103516-2.6367188-0.6103516-4.7304688c0-2.0800781,0.2099609-3.6630859,0.6298828-4.75
			c0.4208984-1.0869141,1.0302734-1.8232422,1.8300781-2.2099609c0.8007812-0.3867188,1.8730469-0.5800781,3.2207031-0.5800781
			c1.3857422,0,2.4794922,0.1899414,3.2792969,0.5698242c0.8007812,0.3798828,1.4003906,1.1132812,1.8007812,2.2001953
			c0.3994141,1.0869141,0.5996094,2.6767578,0.5996094,4.7700195c0,2.09375-0.203125,3.6699219-0.6103516,4.7304688
			c-0.40625,1.0595703-1.0068359,1.7734375-1.7998047,2.1396484c-0.7929688,0.3671875-1.8837891,0.5498047-3.2695312,0.5498047
			C156.7363281,47.1748047,155.6464844,46.9921875,154.8535156,46.625z M160.5732422,45.3144531
			c0.5673828-0.2929688,0.9833984-0.8662109,1.25-1.7197266c0.2666016-0.8525391,0.4003906-2.1328125,0.4003906-3.8398438
			c0-1.7734375-0.1337891-3.0932617-0.4003906-3.9599609s-0.6826172-1.4433594-1.25-1.7304688
			c-0.5664062-0.2861328-1.3828125-0.4296875-2.4492188-0.4296875c-1.0136719,0-1.8076172,0.1435547-2.3798828,0.4296875
			c-0.5742188,0.2871094-1.0039062,0.8701172-1.2900391,1.75c-0.2871094,0.8803711-0.4306641,2.1938477-0.4306641,3.9404297
			c0,1.7197266,0.1269531,3.0039062,0.3798828,3.8496094c0.2539062,0.8476562,0.6630859,1.4169922,1.2304688,1.7099609
			c0.5664062,0.2939453,1.3964844,0.4404297,2.4902344,0.4404297
			C159.1904297,45.7548828,160.0068359,45.6083984,160.5732422,45.3144531z"/>
		<path class="st2" d="M168.3037109,46.3847656c-0.5205078-0.4462891-0.7802734-1.2099609-0.7802734-2.2900391V32.3344727h1.5996094
			V43.875c0,0.6533203,0.1533203,1.1035156,0.4599609,1.3496094c0.3066406,0.2470703,0.7207031,0.3701172,1.2402344,0.3701172
			h5.2802734v1.4599609h-5.6201172C169.5498047,47.0546875,168.8232422,46.8320312,168.3037109,46.3847656z"/>
		<path class="st2" d="M181.1132812,46.625c-0.7929688-0.3662109-1.3935547-1.0800781-1.7998047-2.1396484
			c-0.4072266-1.0605469-0.6103516-2.6367188-0.6103516-4.7304688c0-2.0800781,0.2099609-3.6630859,0.6298828-4.75
			c0.4208984-1.0869141,1.0302734-1.8232422,1.8300781-2.2099609c0.8007812-0.3867188,1.8730469-0.5800781,3.2207031-0.5800781
			c1.3857422,0,2.4794922,0.1899414,3.2792969,0.5698242c0.8007812,0.3798828,1.4003906,1.1132812,1.8007812,2.2001953
			c0.3994141,1.0869141,0.5996094,2.6767578,0.5996094,4.7700195c0,2.09375-0.203125,3.6699219-0.6103516,4.7304688
			c-0.40625,1.0595703-1.0068359,1.7734375-1.7998047,2.1396484c-0.7929688,0.3671875-1.8837891,0.5498047-3.2695312,0.5498047
			C182.9960938,47.1748047,181.90625,46.9921875,181.1132812,46.625z M186.8330078,45.3144531
			c0.5673828-0.2929688,0.9833984-0.8662109,1.25-1.7197266c0.2666016-0.8525391,0.4003906-2.1328125,0.4003906-3.8398438
			c0-1.7734375-0.1337891-3.0932617-0.4003906-3.9599609s-0.6826172-1.4433594-1.25-1.7304688
			c-0.5664062-0.2861328-1.3828125-0.4296875-2.4492188-0.4296875c-1.0136719,0-1.8076172,0.1435547-2.3798828,0.4296875
			c-0.5742188,0.2871094-1.0039062,0.8701172-1.2900391,1.75c-0.2871094,0.8803711-0.4306641,2.1938477-0.4306641,3.9404297
			c0,1.7197266,0.1269531,3.0039062,0.3798828,3.8496094c0.2539062,0.8476562,0.6630859,1.4169922,1.2304688,1.7099609
			c0.5664062,0.2939453,1.3964844,0.4404297,2.4902344,0.4404297
			C185.4501953,45.7548828,186.2666016,45.6083984,186.8330078,45.3144531z"/>
		<path class="st2" d="M195.2626953,46.3652344c-0.6796875-0.5273438-1.15625-1.3271484-1.4296875-2.4003906
			s-0.4101562-2.5097656-0.4101562-4.3100586c0-1.746582,0.1464844-3.1533203,0.4404297-4.2202148
			c0.2929688-1.0664062,0.8027344-1.8701172,1.5302734-2.409668c0.7265625-0.5400391,1.7294922-0.8100586,3.0097656-0.8100586
			c0.7597656,0,1.5595703,0.046875,2.3994141,0.1396484c0.8408203,0.09375,1.6201172,0.2202148,2.3408203,0.3803711v1.1796875
			c-0.5341797-0.0664062-1.2207031-0.1298828-2.0605469-0.1899414s-1.6533203-0.0898438-2.4394531-0.0898438
			c-0.9599609,0-1.7041016,0.199707-2.2304688,0.6000977c-0.5263672,0.3999023-0.8935547,1.0297852-1.0996094,1.8896484
			c-0.2070312,0.8603516-0.3105469,2.043457-0.3105469,3.550293c0,1.6005859,0.1035156,2.8271484,0.3105469,3.6796875
			c0.2060547,0.8535156,0.5625,1.4570312,1.0693359,1.8105469s1.2402344,0.5302734,2.2001953,0.5302734
			c0.5869141,0,1.203125-0.0732422,1.8505859-0.2207031c0.6464844-0.1464844,1.2431641-0.3261719,1.7900391-0.5400391v-4.3398438
			h-3.5605469v-1.1801758c0.8662109-0.1328125,1.9667969-0.199707,3.2998047-0.199707
			c0.7734375,0,1.3671875,0.0268555,1.7802734,0.0800781v7.7597656h-1.1601562l-0.2402344-1.0400391
			c-0.5996094,0.3076172-1.2666016,0.5732422-2,0.7998047c-0.7333984,0.2275391-1.4794922,0.3408203-2.2392578,0.3408203
			C196.8896484,47.1552734,195.9433594,46.8916016,195.2626953,46.3652344z"/>
		<path class="st2" d="M211.6826172,42.1748047l-4.6796875-9.840332h1.6601562l3.8398438,8.2402344l3.8398438-8.2402344h1.5996094
			l-4.6591797,9.840332v4.8798828h-1.6005859V42.1748047z"/>
		<path class="st2" d="M87.8740234,71.0644531c-0.9272461-0.0732422-1.637207-0.15625-2.1303711-0.25v-1.2197266
			c1.0400391,0.1064453,2.5068359,0.1601562,4.4003906,0.1601562c1.0131836,0,1.7998047-0.1601562,2.3598633-0.4804688
			C93.0639648,68.9550781,93.34375,68.375,93.34375,67.5351562v-1c0-1.3867188-0.7333984-2.0800781-2.199707-2.0800781h-1.5800781
			c-1.2670898,0-2.2299805-0.2773438-2.8901367-0.8300781c-0.6601562-0.5537109-0.9897461-1.4638672-0.9897461-2.7304688v-0.8398438
			c0-1.3466797,0.3598633-2.3232422,1.0795898-2.9296875c0.7202148-0.6064453,1.7866211-0.9101562,3.2001953-0.9101562
			c0.6000977,0,1.3232422,0.0429688,2.1699219,0.1298828s1.5366211,0.1835938,2.0703125,0.2900391v1.2001953
			c-1.800293-0.1201172-3.1601562-0.1806641-4.0800781-0.1806641c-0.9868164,0-1.7202148,0.1777344-2.2001953,0.5302734
			c-0.4799805,0.3535156-0.7197266,0.9970703-0.7197266,1.9296875v0.6806641c0,0.7734375,0.203125,1.3232422,0.6098633,1.6494141
			c0.40625,0.3271484,1.0097656,0.4902344,1.8100586,0.4902344h1.699707c1.1601562,0,2.0400391,0.3105469,2.6401367,0.9296875
			c0.6000977,0.6201172,0.8999023,1.4501953,0.8999023,2.4902344v1.140625c0,1.3730469-0.4169922,2.3291016-1.25,2.8691406
			c-0.8334961,0.5400391-1.9697266,0.8105469-3.409668,0.8105469C89.5771484,71.1748047,88.800293,71.1376953,87.8740234,71.0644531
			z"/>
		<path class="st2" d="M100.6333008,70.625c-0.793457-0.3671875-1.3930664-1.0800781-1.7998047-2.140625
			c-0.4067383-1.0595703-0.6098633-2.6367188-0.6098633-4.7294922c0-2.0800781,0.2099609-3.6630859,0.6298828-4.75
			s1.0297852-1.8232422,1.8300781-2.2099609c0.7998047-0.3867188,1.8730469-0.5800781,3.2197266-0.5800781
			c1.3867188,0,2.4799805,0.1894531,3.2802734,0.5703125c0.7998047,0.3798828,1.3999023,1.1132812,1.7998047,2.1992188
			c0.3999023,1.0869141,0.6000977,2.6767578,0.6000977,4.7705078c0,2.0927734-0.2036133,3.6699219-0.6098633,4.7294922
			c-0.4072266,1.0605469-1.0068359,1.7734375-1.800293,2.140625c-0.793457,0.3662109-1.8833008,0.5498047-3.2700195,0.5498047
			S101.4267578,70.9912109,100.6333008,70.625z M106.3535156,69.3144531c0.5664062-0.2929688,0.9829102-0.8662109,1.25-1.7197266
			c0.2666016-0.8535156,0.3999023-2.1328125,0.3999023-3.8398438c0-1.7734375-0.1333008-3.09375-0.3999023-3.9599609
			c-0.2670898-0.8671875-0.6835938-1.4433594-1.25-1.7304688c-0.5668945-0.2861328-1.3833008-0.4296875-2.4501953-0.4296875
			c-1.0131836,0-1.8066406,0.1435547-2.3798828,0.4296875c-0.5732422,0.2871094-1.003418,0.8701172-1.2900391,1.75
			s-0.4301758,2.1933594-0.4301758,3.9404297c0,1.7197266,0.1269531,3.0029297,0.3803711,3.8496094
			c0.2529297,0.8466797,0.6630859,1.4169922,1.2299805,1.7099609c0.5664062,0.2939453,1.3964844,0.4404297,2.4897461,0.4404297
			C104.9702148,69.7548828,105.7866211,69.6083984,106.3535156,69.3144531z"/>
		<path class="st2" d="M114.0830078,70.3847656c-0.5200195-0.4462891-0.7797852-1.2099609-0.7797852-2.2900391V56.3349609h1.6000977
			V67.875c0,0.6533203,0.152832,1.1035156,0.4599609,1.3496094c0.3066406,0.2470703,0.7197266,0.3701172,1.2397461,0.3701172
			h5.2802734v1.4599609h-5.6201172C115.3295898,71.0546875,114.6030273,70.8320312,114.0830078,70.3847656z"/>
		<path class="st2" d="M125.8232422,70.1347656c-0.9199219-0.6933594-1.3798828-1.90625-1.3798828-3.6396484V56.3349609h1.6005859
			v10.1601562c0,1.1992188,0.3164062,2.0400391,0.9492188,2.5195312c0.6337891,0.4804688,1.5908203,0.7197266,2.8701172,0.7197266
			c1.2802734,0,2.2363281-0.2392578,2.8701172-0.7197266c0.6328125-0.4794922,0.9501953-1.3203125,0.9501953-2.5195312V56.3349609
			h1.5996094v10.1601562c0,1.7333984-0.4599609,2.9462891-1.3798828,3.6396484s-2.2666016,1.0400391-4.0400391,1.0400391
			S126.7431641,70.828125,125.8232422,70.1347656z"/>
		<path class="st2" d="M142.5039062,57.7744141h-4.5595703v-1.4394531h10.6796875v1.4394531h-4.5400391v13.2802734h-1.5800781
			V57.7744141z"/>
		<path class="st2" d="M151.484375,56.3349609h1.5996094v14.7197266h-1.5996094V56.3349609z"/>
		<path class="st2" d="M159.2138672,70.625c-0.7929688-0.3671875-1.3935547-1.0800781-1.7998047-2.140625
			c-0.4072266-1.0595703-0.6103516-2.6367188-0.6103516-4.7294922c0-2.0800781,0.2099609-3.6630859,0.6298828-4.75
			c0.4208984-1.0869141,1.0302734-1.8232422,1.8300781-2.2099609c0.8007812-0.3867188,1.8730469-0.5800781,3.2207031-0.5800781
			c1.3857422,0,2.4794922,0.1894531,3.2792969,0.5703125c0.8007812,0.3798828,1.4003906,1.1132812,1.8007812,2.1992188
			c0.3994141,1.0869141,0.5996094,2.6767578,0.5996094,4.7705078c0,2.0927734-0.203125,3.6699219-0.6103516,4.7294922
			c-0.40625,1.0605469-1.0068359,1.7734375-1.7998047,2.140625c-0.7929688,0.3662109-1.8837891,0.5498047-3.2695312,0.5498047
			C161.0966797,71.1748047,160.0068359,70.9912109,159.2138672,70.625z M164.9335938,69.3144531
			c0.5673828-0.2929688,0.9833984-0.8662109,1.25-1.7197266s0.4003906-2.1328125,0.4003906-3.8398438
			c0-1.7734375-0.1337891-3.09375-0.4003906-3.9599609c-0.2666016-0.8671875-0.6826172-1.4433594-1.25-1.7304688
			c-0.5664062-0.2861328-1.3828125-0.4296875-2.4492188-0.4296875c-1.0136719,0-1.8076172,0.1435547-2.3798828,0.4296875
			c-0.5742188,0.2871094-1.0039062,0.8701172-1.2900391,1.75c-0.2871094,0.8798828-0.4306641,2.1933594-0.4306641,3.9404297
			c0,1.7197266,0.1269531,3.0029297,0.3798828,3.8496094c0.2539062,0.8466797,0.6630859,1.4169922,1.2304688,1.7099609
			c0.5664062,0.2939453,1.3964844,0.4404297,2.4902344,0.4404297
			C163.5507812,69.7548828,164.3671875,69.6083984,164.9335938,69.3144531z"/>
		<path class="st2" d="M172.1640625,56.3349609h1.2998047l7.6796875,11.9794922V56.3349609h1.5800781v14.7197266h-1.2998047
			l-7.6796875-11.9804688v11.9804688h-1.5800781V56.3349609z"/>
		<path class="st2" d="M188.3935547,71.0644531c-0.9267578-0.0732422-1.6367188-0.15625-2.1298828-0.25v-1.2197266
			c1.0400391,0.1064453,2.5068359,0.1601562,4.4003906,0.1601562c1.0126953,0,1.7998047-0.1601562,2.359375-0.4804688
			c0.5605469-0.3193359,0.8408203-0.8994141,0.8408203-1.7392578v-1c0-1.3867188-0.7333984-2.0800781-2.2001953-2.0800781
			h-1.5800781c-1.2666016,0-2.2304688-0.2773438-2.8896484-0.8300781c-0.6601562-0.5537109-0.9902344-1.4638672-0.9902344-2.7304688
			v-0.8398438c0-1.3466797,0.359375-2.3232422,1.0800781-2.9296875c0.7197266-0.6064453,1.7861328-0.9101562,3.2001953-0.9101562
			c0.5996094,0,1.3222656,0.0429688,2.1699219,0.1298828c0.8457031,0.0869141,1.5361328,0.1835938,2.0693359,0.2900391v1.2001953
			c-1.7998047-0.1201172-3.1601562-0.1806641-4.0800781-0.1806641c-0.9863281,0-1.7197266,0.1777344-2.1992188,0.5302734
			c-0.4804688,0.3535156-0.7207031,0.9970703-0.7207031,1.9296875v0.6806641c0,0.7734375,0.203125,1.3232422,0.6103516,1.6494141
			c0.40625,0.3271484,1.0097656,0.4902344,1.8095703,0.4902344h1.7001953c1.1601562,0,2.0400391,0.3105469,2.640625,0.9296875
			c0.5996094,0.6201172,0.8994141,1.4501953,0.8994141,2.4902344v1.140625c0,1.3730469-0.4169922,2.3291016-1.25,2.8691406
			s-1.9697266,0.8105469-3.4101562,0.8105469C190.0966797,71.1748047,189.3203125,71.1376953,188.3935547,71.0644531z"/>
	</g>
</g>
</svg>
